{
.appVersion = "116";
copyright = "© 2015-2023 Apple Inc. All rights reserved.";
date = "2017-01-26 12:11:28 +0000";
designer = "Apple Inc.";
designerURL = "http://www.apple.com/";
familyName = "SF Rounded Time";
featurePrefixes = (
{
automatic = 1;
code = "languagesystem DFLT dflt;\012languagesystem arab dflt;\012languagesystem arab URD;\012";
name = Languagesystems;
}
);
features = (
{
automatic = 1;
code = "feature locl;\012";
name = aalt;
},
{
automatic = 1;
code = "script arab;\012language URD;\012sub four-persian by four-persian.urdu;\012sub six-persian by six-ar;\012sub seven-persian by seven-persian.urdu;\012";
name = locl;
}
);
fontMaster = (
{
ascender = 1950;
capHeight = 1443;
descender = -494;
id = "65DB373A-59A7-4FB5-ABD2-B802649BC7D7";
weightValue = 400;
widthValue = 5;
xHeight = 1040;
}
);
glyphs = (
{
glyphname = zero;
layers = (
{
layerId = "65DB373A-59A7-4FB5-ABD2-B802649BC7D7";
paths = (
{
closed = 1;
nodes = (
"499.333 -24 OFFCURVE",
"404.333 6.333 OFFCURVE",
"325 67 CURVE SMOOTH",
"245.667 127.667 OFFCURVE",
"185 213.833 OFFCURVE",
"143 325.5 CURVE SMOOTH",
"101 437.167 OFFCURVE",
"80 569.333 OFFCURVE",
"80 722 CURVE SMOOTH",
"80 875.333 OFFCURVE",
"101 1007.667 OFFCURVE",
"143 1119 CURVE SMOOTH",
"185 1230.333 OFFCURVE",
"245.667 1316.167 OFFCURVE",
"325 1376.5 CURVE SMOOTH",
"404.333 1436.833 OFFCURVE",
"499.333 1467 OFFCURVE",
"610 1467 CURVE SMOOTH",
"720.667 1467 OFFCURVE",
"815.833 1436.833 OFFCURVE",
"895.5 1376.5 CURVE SMOOTH",
"975.167 1316.167 OFFCURVE",
"1036.167 1230.333 OFFCURVE",
"1078.5 1119 CURVE SMOOTH",
"1120.833 1007.667 OFFCURVE",
"1142 875.333 OFFCURVE",
"1142 722 CURVE SMOOTH",
"1142 569.333 OFFCURVE",
"1120.833 437.167 OFFCURVE",
"1078.5 325.5 CURVE SMOOTH",
"1036.167 213.833 OFFCURVE",
"975.167 127.667 OFFCURVE",
"895.5 67 CURVE SMOOTH",
"815.833 6.333 OFFCURVE",
"720.667 -24 OFFCURVE",
"610 -24 CURVE SMOOTH",
"610 -24 LINE SMOOTH"
);
},
{
closed = 1;
nodes = (
"683.333 133 OFFCURVE",
"746.167 157 OFFCURVE",
"798.5 205 CURVE SMOOTH",
"850.833 253 OFFCURVE",
"891 321 OFFCURVE",
"919 409 CURVE SMOOTH",
"947 497 OFFCURVE",
"961 601.333 OFFCURVE",
"961 722 CURVE SMOOTH",
"961 843.333 OFFCURVE",
"947 947.833 OFFCURVE",
"919 1035.5 CURVE SMOOTH",
"891 1123.167 OFFCURVE",
"850.833 1190.667 OFFCURVE",
"798.5 1238 CURVE SMOOTH",
"746.167 1285.333 OFFCURVE",
"683.333 1309 OFFCURVE",
"610 1309 CURVE SMOOTH",
"536.667 1309 OFFCURVE",
"474 1285.333 OFFCURVE",
"422 1238 CURVE SMOOTH",
"370 1190.667 OFFCURVE",
"330.167 1123.167 OFFCURVE",
"302.5 1035.5 CURVE SMOOTH",
"274.833 947.833 OFFCURVE",
"261 843.333 OFFCURVE",
"261 722 CURVE SMOOTH",
"261 601.333 OFFCURVE",
"274.833 497 OFFCURVE",
"302.5 409 CURVE SMOOTH",
"330.167 321 OFFCURVE",
"370 253 OFFCURVE",
"422 205 CURVE SMOOTH",
"474 157 OFFCURVE",
"536.667 133 OFFCURVE",
"610 133 CURVE",
"610 133 LINE"
);
}
);
width = 1222;
}
);
note = zero;
unicode = 0030;
},
{
glyphname = one;
layers = (
{
layerId = "65DB373A-59A7-4FB5-ABD2-B802649BC7D7";
paths = (
{
closed = 1;
nodes = (
"497.667 -18 OFFCURVE",
"476.833 -9.333 OFFCURVE",
"460.5 8 CURVE SMOOTH",
"444.167 25.333 OFFCURVE",
"436 47.667 OFFCURVE",
"436 75 CURVE SMOOTH",
"436 1277 LINE",
"456 1267 LINE",
"162 1057 LINE SMOOTH",
"152 1050.333 OFFCURVE",
"142.167 1045.167 OFFCURVE",
"132.5 1041.5 CURVE SMOOTH",
"122.833 1037.833 OFFCURVE",
"112.333 1036 OFFCURVE",
"101 1036 CURVE SMOOTH",
"80.333 1036 OFFCURVE",
"63.333 1042.833 OFFCURVE",
"50 1056.5 CURVE SMOOTH",
"36.667 1070.167 OFFCURVE",
"30 1088 OFFCURVE",
"30 1110 CURVE SMOOTH",
"30 1126 OFFCURVE",
"33.667 1140 OFFCURVE",
"41 1152 CURVE SMOOTH",
"48.333 1164 OFFCURVE",
"61.333 1176.667 OFFCURVE",
"80 1190 CURVE SMOOTH",
"389 1411 LINE SMOOTH",
"417 1431 OFFCURVE",
"439 1444.333 OFFCURVE",
"455 1451 CURVE SMOOTH",
"471 1457.667 OFFCURVE",
"489.333 1461 OFFCURVE",
"510 1461 CURVE SMOOTH",
"541.333 1461 OFFCURVE",
"565.833 1452 OFFCURVE",
"583.5 1434 CURVE SMOOTH",
"601.167 1416 OFFCURVE",
"610 1391.333 OFFCURVE",
"610 1360 CURVE SMOOTH",
"610 75 LINE SMOOTH",
"610 47.667 OFFCURVE",
"601.833 25.333 OFFCURVE",
"585.5 8 CURVE SMOOTH",
"569.167 -9.333 OFFCURVE",
"548.333 -18 OFFCURVE",
"523 -18 CURVE SMOOTH",
"523 -18 LINE SMOOTH"
);
}
);
width = 755;
}
);
note = one;
unicode = 0031;
},
{
glyphname = two;
layers = (
{
layerId = "65DB373A-59A7-4FB5-ABD2-B802649BC7D7";
paths = (
{
closed = 1;
nodes = (
"154.333 0 OFFCURVE",
"133.167 6.667 OFFCURVE",
"117.5 20 CURVE SMOOTH",
"101.833 33.333 OFFCURVE",
"94 52.667 OFFCURVE",
"94 78 CURVE SMOOTH",
"94 93.333 OFFCURVE",
"97 107.833 OFFCURVE",
"103 121.5 CURVE SMOOTH",
"109 135.167 OFFCURVE",
"122 152.333 OFFCURVE",
"142 173 CURVE SMOOTH",
"605 656 LINE SMOOTH",
"670.333 724 OFFCURVE",
"720.333 780.5 OFFCURVE",
"755 825.5 CURVE SMOOTH",
"789.667 870.5 OFFCURVE",
"813.667 910.333 OFFCURVE",
"827 945 CURVE SMOOTH",
"840.333 979.667 OFFCURVE",
"847 1015 OFFCURVE",
"847 1051 CURVE SMOOTH",
"847 1104.333 OFFCURVE",
"835.333 1150.333 OFFCURVE",
"812 1189 CURVE SMOOTH",
"788.667 1227.667 OFFCURVE",
"756.5 1257.5 OFFCURVE",
"715.5 1278.5 CURVE SMOOTH",
"674.5 1299.5 OFFCURVE",
"626.667 1310 OFFCURVE",
"572 1310 CURVE SMOOTH",
"523.333 1310 OFFCURVE",
"478.5 1301 OFFCURVE",
"437.5 1283 CURVE SMOOTH",
"396.5 1265 OFFCURVE",
"362 1240.5 OFFCURVE",
"334 1209.5 CURVE SMOOTH",
"306 1178.5 OFFCURVE",
"286 1142.667 OFFCURVE",
"274 1102 CURVE SMOOTH",
"266 1074.667 OFFCURVE",
"255.833 1051.833 OFFCURVE",
"243.5 1033.5 CURVE SMOOTH",
"231.167 1015.167 OFFCURVE",
"210.333 1006 OFFCURVE",
"181 1006 CURVE SMOOTH",
"158.333 1006 OFFCURVE",
"140.167 1011.667 OFFCURVE",
"126.5 1023 CURVE SMOOTH",
"112.833 1034.333 OFFCURVE",
"104.5 1051 OFFCURVE",
"101.5 1073 CURVE SMOOTH",
"98.5 1095 OFFCURVE",
"101 1121.667 OFFCURVE",
"109 1153 CURVE SMOOTH",
"125 1213 OFFCURVE",
"155.167 1266.667 OFFCURVE",
"199.5 1314 CURVE SMOOTH",
"243.833 1361.333 OFFCURVE",
"298.333 1398.667 OFFCURVE",
"363 1426 CURVE SMOOTH",
"427.667 1453.333 OFFCURVE",
"498.333 1467 OFFCURVE",
"575 1467 CURVE SMOOTH",
"662.333 1467 OFFCURVE",
"740 1449.5 OFFCURVE",
"808 1414.5 CURVE SMOOTH",
"876 1379.5 OFFCURVE",
"929.5 1331.667 OFFCURVE",
"968.5 1271 CURVE SMOOTH",
"1007.5 1210.333 OFFCURVE",
"1027 1141.333 OFFCURVE",
"1027 1064 CURVE SMOOTH",
"1027 1012.667 OFFCURVE",
"1017.5 962 OFFCURVE",
"998.5 912 CURVE SMOOTH",
"979.5 862 OFFCURVE",
"945.667 805.667 OFFCURVE",
"897 743 CURVE SMOOTH",
"848.333 680.333 OFFCURVE",
"779.667 604 OFFCURVE",
"691 514 CURVE SMOOTH",
"295 111 LINE",
"293 166 LINE",
"973 166 LINE SMOOTH",
"999.667 166 OFFCURVE",
"1021 158.5 OFFCURVE",
"1037 143.5 CURVE SMOOTH",
"1053 128.5 OFFCURVE",
"1061 108.333 OFFCURVE",
"1061 83 CURVE SMOOTH",
"1061 58.333 OFFCURVE",
"1053 38.333 OFFCURVE",
"1037 23 CURVE SMOOTH",
"1021 7.667 OFFCURVE",
"999.667 0 OFFCURVE",
"973 0 CURVE SMOOTH",
"181 0 LINE",
"181 0 LINE SMOOTH"
);
}
);
width = 1121;
}
);
note = two;
unicode = 0032;
},
{
glyphname = three;
layers = (
{
layerId = "65DB373A-59A7-4FB5-ABD2-B802649BC7D7";
paths = (
{
closed = 1;
nodes = (
"488 -24 OFFCURVE",
"402 -6.833 OFFCURVE",
"334 27.5 CURVE SMOOTH",
"266 61.833 OFFCURVE",
"213.333 101.333 OFFCURVE",
"176 146 CURVE SMOOTH",
"151.333 176 OFFCURVE",
"133.167 206 OFFCURVE",
"121.5 236 CURVE SMOOTH",
"109.833 266 OFFCURVE",
"104 293 OFFCURVE",
"104 317 CURVE SMOOTH",
"104 344.333 OFFCURVE",
"111 365.5 OFFCURVE",
"125 380.5 CURVE SMOOTH",
"139 395.5 OFFCURVE",
"158.333 403 OFFCURVE",
"183 403 CURVE SMOOTH",
"211.667 403 OFFCURVE",
"231.5 394.167 OFFCURVE",
"242.5 376.5 CURVE SMOOTH",
"253.5 358.833 OFFCURVE",
"263.5 337 OFFCURVE",
"272.5 311 CURVE SMOOTH",
"281.5 285 OFFCURVE",
"297.333 259.333 OFFCURVE",
"320 234 CURVE SMOOTH",
"340 212 OFFCURVE",
"363.833 193.5 OFFCURVE",
"391.5 178.5 CURVE SMOOTH",
"419.167 163.5 OFFCURVE",
"450.167 152 OFFCURVE",
"484.5 144 CURVE SMOOTH",
"518.833 136 OFFCURVE",
"555.667 132 OFFCURVE",
"595 132 CURVE SMOOTH",
"658.333 132 OFFCURVE",
"713.833 142.667 OFFCURVE",
"761.5 164 CURVE SMOOTH",
"809.167 185.333 OFFCURVE",
"846.333 216.167 OFFCURVE",
"873 256.5 CURVE SMOOTH",
"899.667 296.833 OFFCURVE",
"913 344.667 OFFCURVE",
"913 400 CURVE SMOOTH",
"913 482.667 OFFCURVE",
"883.5 548.167 OFFCURVE",
"824.5 596.5 CURVE SMOOTH",
"765.5 644.833 OFFCURVE",
"685.333 669 OFFCURVE",
"584 669 CURVE SMOOTH",
"469 669 LINE SMOOTH",
"445 669 OFFCURVE",
"425.5 676 OFFCURVE",
"410.5 690 CURVE SMOOTH",
"395.5 704 OFFCURVE",
"388 722.333 OFFCURVE",
"388 745 CURVE SMOOTH",
"388 767.667 OFFCURVE",
"395.5 786 OFFCURVE",
"410.5 800 CURVE SMOOTH",
"425.5 814 OFFCURVE",
"445 821 OFFCURVE",
"469 821 CURVE SMOOTH",
"576 821 LINE SMOOTH",
"633.333 821 OFFCURVE",
"684 831.833 OFFCURVE",
"728 853.5 CURVE SMOOTH",
"772 875.167 OFFCURVE",
"806.333 905.167 OFFCURVE",
"831 943.5 CURVE SMOOTH",
"855.667 981.833 OFFCURVE",
"868 1026 OFFCURVE",
"868 1076 CURVE SMOOTH",
"868 1125.333 OFFCURVE",
"857.333 1167.5 OFFCURVE",
"836 1202.5 CURVE SMOOTH",
"814.667 1237.5 OFFCURVE",
"783.5 1264.333 OFFCURVE",
"742.5 1283 CURVE SMOOTH",
"701.5 1301.667 OFFCURVE",
"651.667 1311 OFFCURVE",
"593 1311 CURVE SMOOTH",
"557.667 1311 OFFCURVE",
"524.833 1307.5 OFFCURVE",
"494.5 1300.5 CURVE SMOOTH",
"464.167 1293.5 OFFCURVE",
"436.833 1283.167 OFFCURVE",
"412.5 1269.5 CURVE SMOOTH",
"388.167 1255.833 OFFCURVE",
"367 1238.333 OFFCURVE",
"349 1217 CURVE SMOOTH",
"327.667 1191.667 OFFCURVE",
"312.333 1165.167 OFFCURVE",
"303 1137.5 CURVE SMOOTH",
"293.667 1109.833 OFFCURVE",
"283.167 1086.667 OFFCURVE",
"271.5 1068 CURVE SMOOTH",
"259.833 1049.333 OFFCURVE",
"239.333 1040 OFFCURVE",
"210 1040 CURVE SMOOTH",
"184.667 1040 OFFCURVE",
"165.167 1047.667 OFFCURVE",
"151.5 1063 CURVE SMOOTH",
"137.833 1078.333 OFFCURVE",
"131 1099.333 OFFCURVE",
"131 1126 CURVE SMOOTH",
"131 1150 OFFCURVE",
"136.667 1177 OFFCURVE",
"148 1207 CURVE SMOOTH",
"159.333 1237 OFFCURVE",
"176.667 1267 OFFCURVE",
"200 1297 CURVE SMOOTH",
"235.333 1342.333 OFFCURVE",
"285.833 1382 OFFCURVE",
"351.5 1416 CURVE SMOOTH",
"417.167 1450 OFFCURVE",
"499.667 1467 OFFCURVE",
"599 1467 CURVE SMOOTH",
"689 1467 OFFCURVE",
"767.667 1451.333 OFFCURVE",
"835 1420 CURVE SMOOTH",
"902.333 1388.667 OFFCURVE",
"954.833 1345 OFFCURVE",
"992.5 1289 CURVE SMOOTH",
"1030.167 1233 OFFCURVE",
"1049 1168 OFFCURVE",
"1049 1094 CURVE SMOOTH",
"1049 1020 OFFCURVE",
"1030.167 955 OFFCURVE",
"992.5 899 CURVE SMOOTH",
"954.833 843 OFFCURVE",
"902.333 799.167 OFFCURVE",
"835 767.5 CURVE SMOOTH",
"767.667 735.833 OFFCURVE",
"689 720 OFFCURVE",
"599 720 CURVE",
"592 800 LINE",
"690 800 OFFCURVE",
"776.833 782.5 OFFCURVE",
"852.5 747.5 CURVE SMOOTH",
"928.167 712.5 OFFCURVE",
"987.667 664.5 OFFCURVE",
"1031 603.5 CURVE SMOOTH",
"1074.333 542.5 OFFCURVE",
"1096 473.333 OFFCURVE",
"1096 396 CURVE SMOOTH",
"1096 316 OFFCURVE",
"1074.333 244.333 OFFCURVE",
"1031 181 CURVE SMOOTH",
"987.667 117.667 OFFCURVE",
"928.167 67.667 OFFCURVE",
"852.5 31 CURVE SMOOTH",
"776.833 -5.667 OFFCURVE",
"690 -24 OFFCURVE",
"592 -24 CURVE SMOOTH",
"592 -24 LINE SMOOTH"
);
}
);
width = 1171;
}
);
note = three;
unicode = 0033;
},
{
glyphname = four;
layers = (
{
layerId = "65DB373A-59A7-4FB5-ABD2-B802649BC7D7";
paths = (
{
closed = 1;
nodes = (
"226 458 LINE",
"775 458 LINE",
"775 1291 LINE",
"699 1184.333 OFFCURVE",
"627.833 1081.833 OFFCURVE",
"561.5 983.5 CURVE SMOOTH",
"495.167 885.167 OFFCURVE",
"434 792 OFFCURVE",
"378 704 CURVE SMOOTH",
"322 616 OFFCURVE",
"271.333 534 OFFCURVE",
"226 458 CURVE"
);
},
{
closed = 1;
nodes = (
"836.667 -18 OFFCURVE",
"815.833 -9.333 OFFCURVE",
"799.5 8 CURVE SMOOTH",
"783.167 25.333 OFFCURVE",
"775 47.667 OFFCURVE",
"775 75 CURVE SMOOTH",
"775 300 LINE",
"150 300 LINE SMOOTH",
"122.667 300 OFFCURVE",
"98.5 308.833 OFFCURVE",
"77.5 326.5 CURVE SMOOTH",
"56.5 344.167 OFFCURVE",
"44.5 369.333 OFFCURVE",
"41.5 402 CURVE SMOOTH",
"38.5 434.667 OFFCURVE",
"49.667 473.667 OFFCURVE",
"75 519 CURVE SMOOTH",
"97 559 OFFCURVE",
"122.833 603.167 OFFCURVE",
"152.5 651.5 CURVE SMOOTH",
"182.167 699.833 OFFCURVE",
"215 751.5 OFFCURVE",
"251 806.5 CURVE SMOOTH",
"287 861.5 OFFCURVE",
"325 918.667 OFFCURVE",
"365 978 CURVE SMOOTH",
"405 1037.333 OFFCURVE",
"446.5 1097.833 OFFCURVE",
"489.5 1159.5 CURVE SMOOTH",
"532.5 1221.167 OFFCURVE",
"576 1282.667 OFFCURVE",
"620 1344 CURVE SMOOTH",
"654.667 1392 OFFCURVE",
"686.167 1423.167 OFFCURVE",
"714.5 1437.5 CURVE SMOOTH",
"742.833 1451.833 OFFCURVE",
"776 1459 OFFCURVE",
"814 1459 CURVE SMOOTH",
"864 1459 OFFCURVE",
"899 1447.5 OFFCURVE",
"919 1424.5 CURVE SMOOTH",
"939 1401.5 OFFCURVE",
"949 1364.667 OFFCURVE",
"949 1314 CURVE SMOOTH",
"949 458 LINE",
"1081 458 LINE SMOOTH",
"1105 458 OFFCURVE",
"1125 450.833 OFFCURVE",
"1141 436.5 CURVE SMOOTH",
"1157 422.167 OFFCURVE",
"1165 403 OFFCURVE",
"1165 379 CURVE SMOOTH",
"1165 355 OFFCURVE",
"1157 335.833 OFFCURVE",
"1141 321.5 CURVE SMOOTH",
"1125 307.167 OFFCURVE",
"1105 300 OFFCURVE",
"1081 300 CURVE SMOOTH",
"949 300 LINE",
"949 75 LINE SMOOTH",
"949 47.667 OFFCURVE",
"940.833 25.333 OFFCURVE",
"924.5 8 CURVE SMOOTH",
"908.167 -9.333 OFFCURVE",
"887.333 -18 OFFCURVE",
"862 -18 CURVE SMOOTH",
"862 -18 LINE SMOOTH"
);
}
);
width = 1183;
}
);
note = four;
unicode = 0034;
},
{
glyphname = five;
layers = (
{
layerId = "65DB373A-59A7-4FB5-ABD2-B802649BC7D7";
paths = (
{
closed = 1;
nodes = (
"509 -24 OFFCURVE",
"443.5 -13 OFFCURVE",
"382.5 9 CURVE SMOOTH",
"321.5 31 OFFCURVE",
"268.5 62.167 OFFCURVE",
"223.5 102.5 CURVE SMOOTH",
"178.5 142.833 OFFCURVE",
"144.667 190 OFFCURVE",
"122 244 CURVE SMOOTH",
"115.333 259.333 OFFCURVE",
"110.167 274.5 OFFCURVE",
"106.5 289.5 CURVE SMOOTH",
"102.833 304.5 OFFCURVE",
"101 321.333 OFFCURVE",
"101 340 CURVE SMOOTH",
"101 365.333 OFFCURVE",
"108.667 385.667 OFFCURVE",
"124 401 CURVE SMOOTH",
"139.333 416.333 OFFCURVE",
"159.667 424 OFFCURVE",
"185 424 CURVE SMOOTH",
"207 424 OFFCURVE",
"224.5 418.5 OFFCURVE",
"237.5 407.5 CURVE SMOOTH",
"250.5 396.5 OFFCURVE",
"261 378.333 OFFCURVE",
"269 353 CURVE SMOOTH",
"283.667 306.333 OFFCURVE",
"305.667 266.667 OFFCURVE",
"335 234 CURVE SMOOTH",
"364.333 201.333 OFFCURVE",
"399.833 176.5 OFFCURVE",
"441.5 159.5 CURVE SMOOTH",
"483.167 142.5 OFFCURVE",
"530.333 134 OFFCURVE",
"583 134 CURVE SMOOTH",
"647.667 134 OFFCURVE",
"704.833 148.167 OFFCURVE",
"754.5 176.5 CURVE SMOOTH",
"804.167 204.833 OFFCURVE",
"843 244 OFFCURVE",
"871 294 CURVE SMOOTH",
"899 344 OFFCURVE",
"913 401.667 OFFCURVE",
"913 467 CURVE SMOOTH",
"913 530.333 OFFCURVE",
"899.167 586.333 OFFCURVE",
"871.5 635 CURVE SMOOTH",
"843.833 683.667 OFFCURVE",
"805.167 721.833 OFFCURVE",
"755.5 749.5 CURVE SMOOTH",
"705.833 777.167 OFFCURVE",
"648 791 OFFCURVE",
"582 791 CURVE SMOOTH",
"523.333 791 OFFCURVE",
"475.167 781.167 OFFCURVE",
"437.5 761.5 CURVE SMOOTH",
"399.833 741.833 OFFCURVE",
"365.333 717.667 OFFCURVE",
"334 689 CURVE SMOOTH",
"313.333 670.333 OFFCURVE",
"294.333 653.167 OFFCURVE",
"277 637.5 CURVE SMOOTH",
"259.667 621.833 OFFCURVE",
"236.333 614 OFFCURVE",
"207 614 CURVE SMOOTH",
"174.333 614 OFFCURVE",
"151.167 624.833 OFFCURVE",
"137.5 646.5 CURVE SMOOTH",
"123.833 668.167 OFFCURVE",
"118.333 696 OFFCURVE",
"121 730 CURVE SMOOTH",
"172 1302 LINE SMOOTH",
"176.667 1352.667 OFFCURVE",
"191.667 1388.833 OFFCURVE",
"217 1410.5 CURVE SMOOTH",
"242.333 1432.167 OFFCURVE",
"281.333 1443 OFFCURVE",
"334 1443 CURVE SMOOTH",
"934 1443 LINE SMOOTH",
"960.667 1443 OFFCURVE",
"982 1435.333 OFFCURVE",
"998 1420 CURVE SMOOTH",
"1014 1404.667 OFFCURVE",
"1022 1384.667 OFFCURVE",
"1022 1360 CURVE SMOOTH",
"1022 1335.333 OFFCURVE",
"1014 1315.333 OFFCURVE",
"998 1300 CURVE SMOOTH",
"982 1284.667 OFFCURVE",
"960.667 1277 OFFCURVE",
"934 1277 CURVE SMOOTH",
"333 1277 LINE",
"281 750 LINE",
"231 765 LINE",
"273 822.333 OFFCURVE",
"327.167 867 OFFCURVE",
"393.5 899 CURVE SMOOTH",
"459.833 931 OFFCURVE",
"534 947 OFFCURVE",
"616 947 CURVE SMOOTH",
"709.333 947 OFFCURVE",
"791.833 926.667 OFFCURVE",
"863.5 886 CURVE SMOOTH",
"935.167 845.333 OFFCURVE",
"991.333 789.333 OFFCURVE",
"1032 718 CURVE SMOOTH",
"1072.667 646.667 OFFCURVE",
"1093 564.667 OFFCURVE",
"1093 472 CURVE SMOOTH",
"1093 375.333 OFFCURVE",
"1071.167 289.667 OFFCURVE",
"1027.5 215 CURVE SMOOTH",
"983.833 140.333 OFFCURVE",
"923.333 81.833 OFFCURVE",
"846 39.5 CURVE SMOOTH",
"768.667 -2.833 OFFCURVE",
"679.667 -24 OFFCURVE",
"579 -24 CURVE SMOOTH",
"579 -24 LINE SMOOTH"
);
}
);
width = 1153;
}
);
note = five;
unicode = 0035;
},
{
glyphname = six;
layers = (
{
layerId = "65DB373A-59A7-4FB5-ABD2-B802649BC7D7";
paths = (
{
closed = 1;
nodes = (
"728.333 1467 OFFCURVE",
"805.167 1451.333 OFFCURVE",
"869.5 1420 CURVE SMOOTH",
"933.833 1388.667 OFFCURVE",
"985 1352.333 OFFCURVE",
"1023 1311 CURVE SMOOTH",
"1048.333 1283.667 OFFCURVE",
"1067.5 1256.167 OFFCURVE",
"1080.5 1228.5 CURVE SMOOTH",
"1093.5 1200.833 OFFCURVE",
"1100 1176.333 OFFCURVE",
"1100 1155 CURVE SMOOTH",
"1100 1130.333 OFFCURVE",
"1092.667 1110.5 OFFCURVE",
"1078 1095.5 CURVE SMOOTH",
"1063.333 1080.5 OFFCURVE",
"1045 1073 OFFCURVE",
"1023 1073 CURVE SMOOTH",
"1011 1073 OFFCURVE",
"999.5 1076.667 OFFCURVE",
"988.5 1084 CURVE SMOOTH",
"977.5 1091.333 OFFCURVE",
"965.667 1102.333 OFFCURVE",
"953 1117 CURVE SMOOTH",
"940.333 1131.667 OFFCURVE",
"925 1150 OFFCURVE",
"907 1172 CURVE",
"888.333 1196.667 OFFCURVE",
"867 1219.167 OFFCURVE",
"843 1239.5 CURVE SMOOTH",
"819 1259.833 OFFCURVE",
"790.833 1276.167 OFFCURVE",
"758.5 1288.5 CURVE SMOOTH",
"726.167 1300.833 OFFCURVE",
"687.667 1307 OFFCURVE",
"643 1307 CURVE SMOOTH",
"556.333 1307 OFFCURVE",
"484 1283 OFFCURVE",
"426 1235 CURVE SMOOTH",
"368 1187 OFFCURVE",
"324.667 1117.333 OFFCURVE",
"296 1026 CURVE SMOOTH",
"267.333 934.667 OFFCURVE",
"253 823.333 OFFCURVE",
"253 692 CURVE SMOOTH",
"253 671.333 OFFCURVE",
"253.333 649.833 OFFCURVE",
"254 627.5 CURVE SMOOTH",
"254.667 605.167 OFFCURVE",
"255.667 582.333 OFFCURVE",
"257 559 CURVE",
"200 564 LINE",
"200 638.667 OFFCURVE",
"220.833 704.5 OFFCURVE",
"262.5 761.5 CURVE SMOOTH",
"304.167 818.5 OFFCURVE",
"360 863.333 OFFCURVE",
"430 896 CURVE SMOOTH",
"500 928.667 OFFCURVE",
"576.667 945 OFFCURVE",
"660 945 CURVE SMOOTH",
"752 945 OFFCURVE",
"834 924.333 OFFCURVE",
"906 883 CURVE SMOOTH",
"978 841.667 OFFCURVE",
"1034.833 785 OFFCURVE",
"1076.5 713 CURVE SMOOTH",
"1118.167 641 OFFCURVE",
"1139 559.333 OFFCURVE",
"1139 468 CURVE SMOOTH",
"1139 373.333 OFFCURVE",
"1117 288.833 OFFCURVE",
"1073 214.5 CURVE SMOOTH",
"1029 140.167 OFFCURVE",
"968.5 81.833 OFFCURVE",
"891.5 39.5 CURVE SMOOTH",
"814.5 -2.833 OFFCURVE",
"726.667 -24 OFFCURVE",
"628 -24 CURVE SMOOTH",
"561.333 -24 OFFCURVE",
"495.667 -11.333 OFFCURVE",
"431 14 CURVE SMOOTH",
"366.333 39.333 OFFCURVE",
"307.5 80 OFFCURVE",
"254.5 136 CURVE SMOOTH",
"201.5 192 OFFCURVE",
"159.167 266 OFFCURVE",
"127.5 358 CURVE SMOOTH",
"95.833 450 OFFCURVE",
"80 563 OFFCURVE",
"80 697 CURVE SMOOTH",
"80 859 OFFCURVE",
"102 997.5 OFFCURVE",
"146 1112.5 CURVE SMOOTH",
"190 1227.5 OFFCURVE",
"253.833 1315.333 OFFCURVE",
"337.5 1376 CURVE SMOOTH",
"421.167 1436.667 OFFCURVE",
"521.667 1467 OFFCURVE",
"639 1467 CURVE",
"639 1467 LINE"
);
},
{
closed = 1;
nodes = (
"566.333 787 OFFCURVE",
"509.833 773.167 OFFCURVE",
"459.5 745.5 CURVE SMOOTH",
"409.167 717.833 OFFCURVE",
"369.5 680 OFFCURVE",
"340.5 632 CURVE SMOOTH",
"311.5 584 OFFCURVE",
"297 529.333 OFFCURVE",
"297 468 CURVE SMOOTH",
"297 406.667 OFFCURVE",
"311.5 350.833 OFFCURVE",
"340.5 300.5 CURVE SMOOTH",
"369.5 250.167 OFFCURVE",
"409 210.167 OFFCURVE",
"459 180.5 CURVE SMOOTH",
"509 150.833 OFFCURVE",
"564.667 136 OFFCURVE",
"626 136 CURVE SMOOTH",
"687.333 136 OFFCURVE",
"743 150.667 OFFCURVE",
"793 180 CURVE SMOOTH",
"843 209.333 OFFCURVE",
"882.667 248.667 OFFCURVE",
"912 298 CURVE SMOOTH",
"941.333 347.333 OFFCURVE",
"956 402.333 OFFCURVE",
"956 463 CURVE SMOOTH",
"956 526.333 OFFCURVE",
"942 582.333 OFFCURVE",
"914 631 CURVE SMOOTH",
"886 679.667 OFFCURVE",
"847.333 717.833 OFFCURVE",
"798 745.5 CURVE SMOOTH",
"748.667 773.167 OFFCURVE",
"692.333 787 OFFCURVE",
"629 787 CURVE SMOOTH",
"629 787 LINE SMOOTH"
);
}
);
width = 1214;
}
);
note = six;
unicode = 0036;
},
{
glyphname = seven;
layers = (
{
layerId = "65DB373A-59A7-4FB5-ABD2-B802649BC7D7";
paths = (
{
closed = 1;
nodes = (
"267.333 -18 OFFCURVE",
"247.333 -11.333 OFFCURVE",
"232 2 CURVE SMOOTH",
"216.667 15.333 OFFCURVE",
"209 33.333 OFFCURVE",
"209 56 CURVE SMOOTH",
"209 66 OFFCURVE",
"210.167 75.333 OFFCURVE",
"212.5 84 CURVE SMOOTH",
"214.833 92.667 OFFCURVE",
"219 102.667 OFFCURVE",
"225 114 CURVE SMOOTH",
"845 1305 LINE",
"893 1277 LINE",
"133 1277 LINE SMOOTH",
"107.667 1277 OFFCURVE",
"86.667 1284.5 OFFCURVE",
"70 1299.5 CURVE SMOOTH",
"53.333 1314.5 OFFCURVE",
"45 1334.667 OFFCURVE",
"45 1360 CURVE SMOOTH",
"45 1385.333 OFFCURVE",
"53.333 1405.5 OFFCURVE",
"70 1420.5 CURVE SMOOTH",
"86.667 1435.5 OFFCURVE",
"107.667 1443 OFFCURVE",
"133 1443 CURVE SMOOTH",
"906 1443 LINE SMOOTH",
"942 1443 OFFCURVE",
"969.833 1433.5 OFFCURVE",
"989.5 1414.5 CURVE SMOOTH",
"1009.167 1395.5 OFFCURVE",
"1019 1368.667 OFFCURVE",
"1019 1334 CURVE SMOOTH",
"1019 1317.333 OFFCURVE",
"1015.833 1300.667 OFFCURVE",
"1009.5 1284 CURVE SMOOTH",
"1003.167 1267.333 OFFCURVE",
"993.333 1245.667 OFFCURVE",
"980 1219 CURVE SMOOTH",
"373 34 LINE SMOOTH",
"363.667 15.333 OFFCURVE",
"352.667 2 OFFCURVE",
"340 -6 CURVE SMOOTH",
"327.333 -14 OFFCURVE",
"311.333 -18 OFFCURVE",
"292 -18 CURVE SMOOTH",
"292 -18 LINE SMOOTH"
);
}
);
width = 1045;
}
);
note = seven;
unicode = 0037;
},
{
glyphname = eight;
layers = (
{
layerId = "65DB373A-59A7-4FB5-ABD2-B802649BC7D7";
paths = (
{
closed = 1;
nodes = (
"497 -24 OFFCURVE",
"406.667 -6.167 OFFCURVE",
"328 29.5 CURVE SMOOTH",
"249.333 65.167 OFFCURVE",
"187.5 114.167 OFFCURVE",
"142.5 176.5 CURVE SMOOTH",
"97.5 238.833 OFFCURVE",
"75 310.333 OFFCURVE",
"75 391 CURVE SMOOTH",
"75 471.667 OFFCURVE",
"97.5 543.167 OFFCURVE",
"142.5 605.5 CURVE SMOOTH",
"187.5 667.833 OFFCURVE",
"249.333 716.833 OFFCURVE",
"328 752.5 CURVE SMOOTH",
"406.667 788.167 OFFCURVE",
"497 806 OFFCURVE",
"599 806 CURVE SMOOTH",
"701 806 OFFCURVE",
"791.333 788.167 OFFCURVE",
"870 752.5 CURVE SMOOTH",
"948.667 716.833 OFFCURVE",
"1010.5 667.833 OFFCURVE",
"1055.5 605.5 CURVE SMOOTH",
"1100.5 543.167 OFFCURVE",
"1123 471.667 OFFCURVE",
"1123 391 CURVE SMOOTH",
"1123 310.333 OFFCURVE",
"1100.5 238.833 OFFCURVE",
"1055.5 176.5 CURVE SMOOTH",
"1010.5 114.167 OFFCURVE",
"948.667 65.167 OFFCURVE",
"870 29.5 CURVE SMOOTH",
"791.333 -6.167 OFFCURVE",
"701 -24 OFFCURVE",
"599 -24 CURVE SMOOTH",
"599 -24 LINE SMOOTH"
);
},
{
closed = 1;
nodes = (
"665.667 133 OFFCURVE",
"724.5 144.667 OFFCURVE",
"775.5 168 CURVE SMOOTH",
"826.5 191.333 OFFCURVE",
"866.667 223.167 OFFCURVE",
"896 263.5 CURVE SMOOTH",
"925.333 303.833 OFFCURVE",
"940 350 OFFCURVE",
"940 402 CURVE SMOOTH",
"940 455.333 OFFCURVE",
"925.5 502.5 OFFCURVE",
"896.5 543.5 CURVE SMOOTH",
"867.5 584.5 OFFCURVE",
"827.333 616.5 OFFCURVE",
"776 639.5 CURVE SMOOTH",
"724.667 662.5 OFFCURVE",
"665.667 674 OFFCURVE",
"599 674 CURVE SMOOTH",
"532.333 674 OFFCURVE",
"473.333 662.5 OFFCURVE",
"422 639.5 CURVE SMOOTH",
"370.667 616.5 OFFCURVE",
"330.5 584.5 OFFCURVE",
"301.5 543.5 CURVE SMOOTH",
"272.5 502.5 OFFCURVE",
"258 455.333 OFFCURVE",
"258 402 CURVE SMOOTH",
"258 350 OFFCURVE",
"272.667 303.833 OFFCURVE",
"302 263.5 CURVE SMOOTH",
"331.333 223.167 OFFCURVE",
"371.5 191.333 OFFCURVE",
"422.5 168 CURVE SMOOTH",
"473.5 144.667 OFFCURVE",
"532.333 133 OFFCURVE",
"599 133 CURVE",
"599 133 LINE"
);
},
{
closed = 1;
nodes = (
"657 832 OFFCURVE",
"708 842.333 OFFCURVE",
"752 863 CURVE SMOOTH",
"796 883.667 OFFCURVE",
"830.333 912 OFFCURVE",
"855 948 CURVE SMOOTH",
"879.667 984 OFFCURVE",
"892 1025.333 OFFCURVE",
"892 1072 CURVE SMOOTH",
"892 1119.333 OFFCURVE",
"879.667 1161 OFFCURVE",
"855 1197 CURVE SMOOTH",
"830.333 1233 OFFCURVE",
"796 1261.167 OFFCURVE",
"752 1281.5 CURVE SMOOTH",
"708 1301.833 OFFCURVE",
"657 1312 OFFCURVE",
"599 1312 CURVE SMOOTH",
"541 1312 OFFCURVE",
"490 1301.833 OFFCURVE",
"446 1281.5 CURVE SMOOTH",
"402 1261.167 OFFCURVE",
"367.667 1233 OFFCURVE",
"343 1197 CURVE SMOOTH",
"318.333 1161 OFFCURVE",
"306 1119.333 OFFCURVE",
"306 1072 CURVE SMOOTH",
"306 1025.333 OFFCURVE",
"318.333 984 OFFCURVE",
"343 948 CURVE SMOOTH",
"367.667 912 OFFCURVE",
"402 883.667 OFFCURVE",
"446 863 CURVE SMOOTH",
"490 842.333 OFFCURVE",
"541 832 OFFCURVE",
"599 832 CURVE",
"599 832 LINE"
);
},
{
closed = 1;
nodes = (
"508.333 707 OFFCURVE",
"427.333 723.333 OFFCURVE",
"356 756 CURVE SMOOTH",
"284.667 788.667 OFFCURVE",
"228.667 833.667 OFFCURVE",
"188 891 CURVE SMOOTH",
"147.333 948.333 OFFCURVE",
"127 1013.667 OFFCURVE",
"127 1087 CURVE SMOOTH",
"127 1160.333 OFFCURVE",
"147.333 1225.667 OFFCURVE",
"188 1283 CURVE SMOOTH",
"228.667 1340.333 OFFCURVE",
"284.667 1385.333 OFFCURVE",
"356 1418 CURVE SMOOTH",
"427.333 1450.667 OFFCURVE",
"508.333 1467 OFFCURVE",
"599 1467 CURVE SMOOTH",
"690.333 1467 OFFCURVE",
"771.5 1450.667 OFFCURVE",
"842.5 1418 CURVE SMOOTH",
"913.5 1385.333 OFFCURVE",
"969.333 1340.333 OFFCURVE",
"1010 1283 CURVE SMOOTH",
"1050.667 1225.667 OFFCURVE",
"1071 1160.333 OFFCURVE",
"1071 1087 CURVE SMOOTH",
"1071 1013.667 OFFCURVE",
"1050.667 948.333 OFFCURVE",
"1010 891 CURVE SMOOTH",
"969.333 833.667 OFFCURVE",
"913.5 788.667 OFFCURVE",
"842.5 756 CURVE SMOOTH",
"771.5 723.333 OFFCURVE",
"690.333 707 OFFCURVE",
"599 707 CURVE SMOOTH",
"599 707 LINE SMOOTH"
);
}
);
width = 1198;
}
);
note = eight;
unicode = 0038;
},
{
glyphname = nine;
layers = (
{
layerId = "65DB373A-59A7-4FB5-ABD2-B802649BC7D7";
paths = (
{
closed = 1;
nodes = (
"486.333 -24 OFFCURVE",
"409.667 -8.167 OFFCURVE",
"345 23.5 CURVE SMOOTH",
"280.333 55.167 OFFCURVE",
"229 91.333 OFFCURVE",
"191 132 CURVE SMOOTH",
"166.333 159.333 OFFCURVE",
"147.333 187 OFFCURVE",
"134 215 CURVE SMOOTH",
"120.667 243 OFFCURVE",
"114 267.333 OFFCURVE",
"114 288 CURVE SMOOTH",
"114 313.333 OFFCURVE",
"121.333 333.333 OFFCURVE",
"136 348 CURVE SMOOTH",
"150.667 362.667 OFFCURVE",
"169 370 OFFCURVE",
"191 370 CURVE SMOOTH",
"203 370 OFFCURVE",
"214.5 366.333 OFFCURVE",
"225.5 359 CURVE SMOOTH",
"236.5 351.667 OFFCURVE",
"248.5 340.833 OFFCURVE",
"261.5 326.5 CURVE SMOOTH",
"274.5 312.167 OFFCURVE",
"289.667 293.667 OFFCURVE",
"307 271 CURVE SMOOTH",
"326.333 247 OFFCURVE",
"347.833 224.667 OFFCURVE",
"371.5 204 CURVE SMOOTH",
"395.167 183.333 OFFCURVE",
"423.167 166.833 OFFCURVE",
"455.5 154.5 CURVE SMOOTH",
"487.833 142.167 OFFCURVE",
"526.333 136 OFFCURVE",
"571 136 CURVE SMOOTH",
"658.333 136 OFFCURVE",
"730.833 160 OFFCURVE",
"788.5 208 CURVE SMOOTH",
"846.167 256 OFFCURVE",
"889.333 325.833 OFFCURVE",
"918 417.5 CURVE SMOOTH",
"946.667 509.167 OFFCURVE",
"961 620.333 OFFCURVE",
"961 751 CURVE SMOOTH",
"961 772.333 OFFCURVE",
"960.667 794.167 OFFCURVE",
"960 816.5 CURVE SMOOTH",
"959.333 838.833 OFFCURVE",
"958.333 861.333 OFFCURVE",
"957 884 CURVE",
"1014 879 LINE",
"1014.667 805 OFFCURVE",
"994 739.333 OFFCURVE",
"952 682 CURVE SMOOTH",
"910 624.667 OFFCURVE",
"854.167 579.667 OFFCURVE",
"784.5 547 CURVE SMOOTH",
"714.833 514.333 OFFCURVE",
"638 498 OFFCURVE",
"554 498 CURVE SMOOTH",
"462.667 498 OFFCURVE",
"380.833 518.667 OFFCURVE",
"308.5 560 CURVE SMOOTH",
"236.167 601.333 OFFCURVE",
"179.167 658 OFFCURVE",
"137.5 730 CURVE SMOOTH",
"95.833 802 OFFCURVE",
"75 883.667 OFFCURVE",
"75 975 CURVE SMOOTH",
"75 1070.333 OFFCURVE",
"97 1155 OFFCURVE",
"141 1229 CURVE SMOOTH",
"185 1303 OFFCURVE",
"245.5 1361.167 OFFCURVE",
"322.5 1403.5 CURVE SMOOTH",
"399.5 1445.833 OFFCURVE",
"487.333 1467 OFFCURVE",
"586 1467 CURVE SMOOTH",
"652.667 1467 OFFCURVE",
"718.333 1454.333 OFFCURVE",
"783 1429 CURVE SMOOTH",
"847.667 1403.667 OFFCURVE",
"906.5 1363 OFFCURVE",
"959.5 1307 CURVE SMOOTH",
"1012.5 1251 OFFCURVE",
"1054.833 1177 OFFCURVE",
"1086.5 1085 CURVE SMOOTH",
"1118.167 993 OFFCURVE",
"1134 880 OFFCURVE",
"1134 746 CURVE SMOOTH",
"1134 584 OFFCURVE",
"1112 445.5 OFFCURVE",
"1068 330.5 CURVE SMOOTH",
"1024 215.5 OFFCURVE",
"960.333 127.667 OFFCURVE",
"877 67 CURVE SMOOTH",
"793.667 6.333 OFFCURVE",
"693 -24 OFFCURVE",
"575 -24 CURVE SMOOTH",
"575 -24 LINE SMOOTH"
);
},
{
closed = 1;
nodes = (
"648.333 656 OFFCURVE",
"705 669.833 OFFCURVE",
"755 697.5 CURVE SMOOTH",
"805 725.167 OFFCURVE",
"844.5 763 OFFCURVE",
"873.5 811 CURVE SMOOTH",
"902.5 859 OFFCURVE",
"917 913.667 OFFCURVE",
"917 975 CURVE SMOOTH",
"917 1037 OFFCURVE",
"902.5 1093 OFFCURVE",
"873.5 1143 CURVE SMOOTH",
"844.5 1193 OFFCURVE",
"805.167 1232.833 OFFCURVE",
"755.5 1262.5 CURVE SMOOTH",
"705.833 1292.167 OFFCURVE",
"650 1307 OFFCURVE",
"588 1307 CURVE SMOOTH",
"526.667 1307 OFFCURVE",
"471 1292.333 OFFCURVE",
"421 1263 CURVE SMOOTH",
"371 1233.667 OFFCURVE",
"331.333 1194.333 OFFCURVE",
"302 1145 CURVE SMOOTH",
"272.667 1095.667 OFFCURVE",
"258 1040.667 OFFCURVE",
"258 980 CURVE SMOOTH",
"258 916.667 OFFCURVE",
"272 860.667 OFFCURVE",
"300 812 CURVE SMOOTH",
"328 763.333 OFFCURVE",
"366.667 725.167 OFFCURVE",
"416 697.5 CURVE SMOOTH",
"465.333 669.833 OFFCURVE",
"521.667 656 OFFCURVE",
"585 656 CURVE",
"585 656 LINE"
);
}
);
width = 1214;
}
);
note = nine;
unicode = 0039;
},
{
glyphname = "zero-deva";
layers = (
{
layerId = "65DB373A-59A7-4FB5-ABD2-B802649BC7D7";
paths = (
{
closed = 1;
nodes = (
"442 221 OFFCURVE",
"364.167 240.833 OFFCURVE",
"294.5 280.5 CURVE SMOOTH",
"224.833 320.167 OFFCURVE",
"169.667 375.167 OFFCURVE",
"129 445.5 CURVE SMOOTH",
"88.333 515.833 OFFCURVE",
"68 597.333 OFFCURVE",
"68 690 CURVE SMOOTH",
"68 782.667 OFFCURVE",
"88.333 864 OFFCURVE",
"129 934 CURVE SMOOTH",
"169.667 1004 OFFCURVE",
"224.667 1058.833 OFFCURVE",
"294 1098.5 CURVE SMOOTH",
"363.333 1138.167 OFFCURVE",
"441.333 1158 OFFCURVE",
"528 1158 CURVE SMOOTH",
"614.667 1158 OFFCURVE",
"692.833 1138.167 OFFCURVE",
"762.5 1098.5 CURVE SMOOTH",
"832.167 1058.833 OFFCURVE",
"887.333 1004 OFFCURVE",
"928 934 CURVE SMOOTH",
"968.667 864 OFFCURVE",
"989 782.667 OFFCURVE",
"989 690 CURVE SMOOTH",
"989 598 OFFCURVE",
"968.667 516.667 OFFCURVE",
"928 446 CURVE SMOOTH",
"887.333 375.333 OFFCURVE",
"832.167 320.167 OFFCURVE",
"762.5 280.5 CURVE SMOOTH",
"692.833 240.833 OFFCURVE",
"614.667 221 OFFCURVE",
"528 221 CURVE SMOOTH",
"528 221 LINE SMOOTH"
);
},
{
closed = 1;
nodes = (
"583.333 381 OFFCURVE",
"632 393.833 OFFCURVE",
"674 419.5 CURVE SMOOTH",
"716 445.167 OFFCURVE",
"748.667 481.167 OFFCURVE",
"772 527.5 CURVE SMOOTH",
"795.333 573.833 OFFCURVE",
"807 627.667 OFFCURVE",
"807 689 CURVE SMOOTH",
"807 751.667 OFFCURVE",
"795.333 806.167 OFFCURVE",
"772 852.5 CURVE SMOOTH",
"748.667 898.833 OFFCURVE",
"716 934.667 OFFCURVE",
"674 960 CURVE SMOOTH",
"632 985.333 OFFCURVE",
"583.333 998 OFFCURVE",
"528 998 CURVE SMOOTH",
"473.333 998 OFFCURVE",
"425 985.333 OFFCURVE",
"383 960 CURVE SMOOTH",
"341 934.667 OFFCURVE",
"308.333 899 OFFCURVE",
"285 853 CURVE SMOOTH",
"261.667 807 OFFCURVE",
"250 752.667 OFFCURVE",
"250 690 CURVE SMOOTH",
"250 627.333 OFFCURVE",
"261.667 572.833 OFFCURVE",
"285 526.5 CURVE SMOOTH",
"308.333 480.167 OFFCURVE",
"341 444.333 OFFCURVE",
"383 419 CURVE SMOOTH",
"425 393.667 OFFCURVE",
"473.333 381 OFFCURVE",
"528 381 CURVE",
"528 381 LINE"
);
}
);
width = 1057;
}
);
note = "zero-deva";
unicode = 0966;
},
{
glyphname = "one-deva";
layers = (
{
layerId = "65DB373A-59A7-4FB5-ABD2-B802649BC7D7";
paths = (
{
closed = 1;
nodes = (
"555 -42 OFFCURVE",
"542 -38.833 OFFCURVE",
"530 -32.5 CURVE SMOOTH",
"518 -26.167 OFFCURVE",
"506.667 -17.667 OFFCURVE",
"496 -7 CURVE",
"156 363 LINE SMOOTH",
"132 389 OFFCURVE",
"116.167 410.833 OFFCURVE",
"108.5 428.5 CURVE SMOOTH",
"100.833 446.167 OFFCURVE",
"97 461.333 OFFCURVE",
"97 474 CURVE SMOOTH",
"97 496.667 OFFCURVE",
"103.833 516.5 OFFCURVE",
"117.5 533.5 CURVE SMOOTH",
"131.167 550.5 OFFCURVE",
"151.667 561.333 OFFCURVE",
"179 566 CURVE SMOOTH",
"276.333 582 OFFCURVE",
"358.167 601.333 OFFCURVE",
"424.5 624 CURVE SMOOTH",
"490.833 646.667 OFFCURVE",
"544.833 672.167 OFFCURVE",
"586.5 700.5 CURVE SMOOTH",
"628.167 728.833 OFFCURVE",
"660.333 760.333 OFFCURVE",
"683 795 CURVE SMOOTH",
"705.667 829.667 OFFCURVE",
"721.333 867 OFFCURVE",
"730 907 CURVE",
"746 907 LINE",
"737.333 869.667 OFFCURVE",
"719.167 836.667 OFFCURVE",
"691.5 808 CURVE SMOOTH",
"663.833 779.333 OFFCURVE",
"628.667 757 OFFCURVE",
"586 741 CURVE SMOOTH",
"543.333 725 OFFCURVE",
"495.333 717 OFFCURVE",
"442 717 CURVE SMOOTH",
"369.333 717 OFFCURVE",
"304.667 732.5 OFFCURVE",
"248 763.5 CURVE SMOOTH",
"191.333 794.5 OFFCURVE",
"146.833 837.167 OFFCURVE",
"114.5 891.5 CURVE SMOOTH",
"82.167 945.833 OFFCURVE",
"66 1008 OFFCURVE",
"66 1078 CURVE SMOOTH",
"66 1152.667 OFFCURVE",
"84.167 1219.333 OFFCURVE",
"120.5 1278 CURVE SMOOTH",
"156.833 1336.667 OFFCURVE",
"206 1383 OFFCURVE",
"268 1417 CURVE SMOOTH",
"330 1451 OFFCURVE",
"400 1468 OFFCURVE",
"478 1468 CURVE SMOOTH",
"560 1468 OFFCURVE",
"632.5 1449.5 OFFCURVE",
"695.5 1412.5 CURVE SMOOTH",
"758.5 1375.5 OFFCURVE",
"808 1323.333 OFFCURVE",
"844 1256 CURVE SMOOTH",
"880 1188.667 OFFCURVE",
"898 1108.667 OFFCURVE",
"898 1016 CURVE SMOOTH",
"898 930 OFFCURVE",
"882.5 852.667 OFFCURVE",
"851.5 784 CURVE SMOOTH",
"820.5 715.333 OFFCURVE",
"775.667 655.333 OFFCURVE",
"717 604 CURVE SMOOTH",
"658.333 552.667 OFFCURVE",
"587.5 510.333 OFFCURVE",
"504.5 477 CURVE SMOOTH",
"421.5 443.667 OFFCURVE",
"327.667 419.333 OFFCURVE",
"223 404 CURVE",
"223 524 LINE",
"624 102 LINE SMOOTH",
"634 91.333 OFFCURVE",
"641.167 81.167 OFFCURVE",
"645.5 71.5 CURVE SMOOTH",
"649.833 61.833 OFFCURVE",
"652 51.333 OFFCURVE",
"652 40 CURVE SMOOTH",
"652 17.333 OFFCURVE",
"644.333 -2 OFFCURVE",
"629 -18 CURVE SMOOTH",
"613.667 -34 OFFCURVE",
"593.667 -42 OFFCURVE",
"569 -42 CURVE SMOOTH",
"569 -42 LINE SMOOTH"
);
},
{
closed = 1;
nodes = (
"524.333 845 OFFCURVE",
"564.667 854.833 OFFCURVE",
"600 874.5 CURVE SMOOTH",
"635.333 894.167 OFFCURVE",
"663.167 921.167 OFFCURVE",
"683.5 955.5 CURVE SMOOTH",
"703.833 989.833 OFFCURVE",
"714 1029 OFFCURVE",
"714 1073 CURVE SMOOTH",
"714 1117 OFFCURVE",
"703.833 1156.833 OFFCURVE",
"683.5 1192.5 CURVE SMOOTH",
"663.167 1228.167 OFFCURVE",
"635.5 1256.333 OFFCURVE",
"600.5 1277 CURVE SMOOTH",
"565.5 1297.667 OFFCURVE",
"526 1308 OFFCURVE",
"482 1308 CURVE SMOOTH",
"438.667 1308 OFFCURVE",
"399.167 1297.667 OFFCURVE",
"363.5 1277 CURVE SMOOTH",
"327.833 1256.333 OFFCURVE",
"299.667 1228.333 OFFCURVE",
"279 1193 CURVE SMOOTH",
"258.333 1157.667 OFFCURVE",
"248 1117.333 OFFCURVE",
"248 1072 CURVE SMOOTH",
"248 1028.667 OFFCURVE",
"257.833 989.833 OFFCURVE",
"277.5 955.5 CURVE SMOOTH",
"297.167 921.167 OFFCURVE",
"324.333 894.167 OFFCURVE",
"359 874.5 CURVE SMOOTH",
"393.667 854.833 OFFCURVE",
"433.667 845 OFFCURVE",
"479 845 CURVE",
"479 845 LINE"
);
}
);
width = 952;
}
);
note = "one-deva";
unicode = 0967;
},
{
glyphname = "two-deva";
layers = (
{
layerId = "65DB373A-59A7-4FB5-ABD2-B802649BC7D7";
paths = (
{
closed = 1;
nodes = (
"556.333 -42 OFFCURVE",
"541.167 -38 OFFCURVE",
"527.5 -30 CURVE SMOOTH",
"513.833 -22 OFFCURVE",
"501.333 -9.333 OFFCURVE",
"490 8 CURVE SMOOTH",
"116 595 LINE SMOOTH",
"110 604.333 OFFCURVE",
"105.667 613.667 OFFCURVE",
"103 623 CURVE SMOOTH",
"100.333 632.333 OFFCURVE",
"99 641.333 OFFCURVE",
"99 650 CURVE SMOOTH",
"99 672 OFFCURVE",
"106.667 690.167 OFFCURVE",
"122 704.5 CURVE SMOOTH",
"137.333 718.833 OFFCURVE",
"157 726 OFFCURVE",
"181 726 CURVE SMOOTH",
"195.667 726 OFFCURVE",
"208.667 722.833 OFFCURVE",
"220 716.5 CURVE SMOOTH",
"231.333 710.167 OFFCURVE",
"243.333 702 OFFCURVE",
"256 692 CURVE SMOOTH",
"288.667 666 OFFCURVE",
"325.5 644.167 OFFCURVE",
"366.5 626.5 CURVE SMOOTH",
"407.5 608.833 OFFCURVE",
"458 600 OFFCURVE",
"518 600 CURVE SMOOTH",
"583.333 600 OFFCURVE",
"640 614 OFFCURVE",
"688 642 CURVE SMOOTH",
"736 670 OFFCURVE",
"773 710.333 OFFCURVE",
"799 763 CURVE SMOOTH",
"825 815.667 OFFCURVE",
"838 879.333 OFFCURVE",
"838 954 CURVE SMOOTH",
"838 1032.667 OFFCURVE",
"824.5 1098.167 OFFCURVE",
"797.5 1150.5 CURVE SMOOTH",
"770.5 1202.833 OFFCURVE",
"733.5 1242.167 OFFCURVE",
"686.5 1268.5 CURVE SMOOTH",
"639.5 1294.833 OFFCURVE",
"585.333 1308 OFFCURVE",
"524 1308 CURVE SMOOTH",
"478.667 1308 OFFCURVE",
"438.667 1300.5 OFFCURVE",
"404 1285.5 CURVE SMOOTH",
"369.333 1270.5 OFFCURVE",
"339.833 1250.5 OFFCURVE",
"315.5 1225.5 CURVE SMOOTH",
"291.167 1200.5 OFFCURVE",
"271 1172.333 OFFCURVE",
"255 1141 CURVE SMOOTH",
"243 1117.667 OFFCURVE",
"230.167 1100.333 OFFCURVE",
"216.5 1089 CURVE SMOOTH",
"202.833 1077.667 OFFCURVE",
"185.333 1072 OFFCURVE",
"164 1072 CURVE SMOOTH",
"136.667 1072 OFFCURVE",
"115.833 1080.167 OFFCURVE",
"101.5 1096.5 CURVE SMOOTH",
"87.167 1112.833 OFFCURVE",
"80 1132 OFFCURVE",
"80 1154 CURVE SMOOTH",
"80 1161.333 OFFCURVE",
"81.167 1169.333 OFFCURVE",
"83.5 1178 CURVE SMOOTH",
"85.833 1186.667 OFFCURVE",
"90.667 1199.333 OFFCURVE",
"98 1216 CURVE SMOOTH",
"117.333 1258 OFFCURVE",
"146.167 1298.167 OFFCURVE",
"184.5 1336.5 CURVE SMOOTH",
"222.833 1374.833 OFFCURVE",
"270.5 1406.333 OFFCURVE",
"327.5 1431 CURVE SMOOTH",
"384.5 1455.667 OFFCURVE",
"450 1468 OFFCURVE",
"524 1468 CURVE SMOOTH",
"618.667 1468 OFFCURVE",
"703.333 1448 OFFCURVE",
"778 1408 CURVE SMOOTH",
"852.667 1368 OFFCURVE",
"911.667 1309.667 OFFCURVE",
"955 1233 CURVE SMOOTH",
"998.333 1156.333 OFFCURVE",
"1020 1062.667 OFFCURVE",
"1020 952 CURVE SMOOTH",
"1020 848.667 OFFCURVE",
"1000.667 758.5 OFFCURVE",
"962 681.5 CURVE SMOOTH",
"923.333 604.5 OFFCURVE",
"869.5 545 OFFCURVE",
"800.5 503 CURVE SMOOTH",
"731.5 461 OFFCURVE",
"651 440 OFFCURVE",
"559 440 CURVE SMOOTH",
"493.667 440 OFFCURVE",
"440.333 451.333 OFFCURVE",
"399 474 CURVE SMOOTH",
"357.667 496.667 OFFCURVE",
"323.667 521.667 OFFCURVE",
"297 549 CURVE",
"338 549 LINE",
"636 94 LINE SMOOTH",
"648 76.667 OFFCURVE",
"654 57.667 OFFCURVE",
"654 37 CURVE SMOOTH",
"654 15 OFFCURVE",
"646.5 -3.667 OFFCURVE",
"631.5 -19 CURVE SMOOTH",
"616.5 -34.333 OFFCURVE",
"597 -42 OFFCURVE",
"573 -42 CURVE SMOOTH",
"573 -42 LINE SMOOTH"
);
}
);
width = 1070;
}
);
note = "two-deva";
unicode = 0968;
},
{
glyphname = "three-deva";
layers = (
{
layerId = "65DB373A-59A7-4FB5-ABD2-B802649BC7D7";
paths = (
{
closed = 1;
nodes = (
"346.667 -42 OFFCURVE",
"322.333 -28.667 OFFCURVE",
"305 -2 CURVE SMOOTH",
"106 317 LINE SMOOTH",
"98 330.333 OFFCURVE",
"92.833 341.833 OFFCURVE",
"90.5 351.5 CURVE SMOOTH",
"88.167 361.167 OFFCURVE",
"87 370.333 OFFCURVE",
"87 379 CURVE SMOOTH",
"87 401.667 OFFCURVE",
"94.5 420.667 OFFCURVE",
"109.5 436 CURVE SMOOTH",
"124.5 451.333 OFFCURVE",
"144.333 459 OFFCURVE",
"169 459 CURVE SMOOTH",
"184.333 459 OFFCURVE",
"197.167 456.167 OFFCURVE",
"207.5 450.5 CURVE SMOOTH",
"217.833 444.833 OFFCURVE",
"227 438.333 OFFCURVE",
"235 431 CURVE SMOOTH",
"270.333 397.667 OFFCURVE",
"309 372.5 OFFCURVE",
"351 355.5 CURVE SMOOTH",
"393 338.5 OFFCURVE",
"442 330 OFFCURVE",
"498 330 CURVE SMOOTH",
"582.667 330 OFFCURVE",
"648.667 348.167 OFFCURVE",
"696 384.5 CURVE SMOOTH",
"743.333 420.833 OFFCURVE",
"767 470.667 OFFCURVE",
"767 534 CURVE SMOOTH",
"767 596.667 OFFCURVE",
"743.833 646.333 OFFCURVE",
"697.5 683 CURVE SMOOTH",
"651.167 719.667 OFFCURVE",
"586 738 OFFCURVE",
"502 738 CURVE SMOOTH",
"341 738 LINE SMOOTH",
"317 738 OFFCURVE",
"297.5 745 OFFCURVE",
"282.5 759 CURVE SMOOTH",
"267.5 773 OFFCURVE",
"260 791.333 OFFCURVE",
"260 814 CURVE SMOOTH",
"260 836.667 OFFCURVE",
"267.5 855 OFFCURVE",
"282.5 869 CURVE SMOOTH",
"297.5 883 OFFCURVE",
"317 890 OFFCURVE",
"341 890 CURVE SMOOTH",
"483 890 LINE SMOOTH",
"534.333 890 OFFCURVE",
"579.667 898.333 OFFCURVE",
"619 915 CURVE SMOOTH",
"658.333 931.667 OFFCURVE",
"689.167 956 OFFCURVE",
"711.5 988 CURVE SMOOTH",
"733.833 1020 OFFCURVE",
"745 1058.333 OFFCURVE",
"745 1103 CURVE SMOOTH",
"745 1143.667 OFFCURVE",
"735.5 1179.5 OFFCURVE",
"716.5 1210.5 CURVE SMOOTH",
"697.5 1241.5 OFFCURVE",
"669.5 1266 OFFCURVE",
"632.5 1284 CURVE SMOOTH",
"595.5 1302 OFFCURVE",
"550 1311 OFFCURVE",
"496 1311 CURVE SMOOTH",
"434.667 1311 OFFCURVE",
"383.667 1299.5 OFFCURVE",
"343 1276.5 CURVE SMOOTH",
"302.333 1253.5 OFFCURVE",
"272.333 1221.667 OFFCURVE",
"253 1181 CURVE SMOOTH",
"242.333 1158.333 OFFCURVE",
"230.333 1142 OFFCURVE",
"217 1132 CURVE SMOOTH",
"203.667 1122 OFFCURVE",
"187.333 1117 OFFCURVE",
"168 1117 CURVE SMOOTH",
"143.333 1117 OFFCURVE",
"123.5 1124.333 OFFCURVE",
"108.5 1139 CURVE SMOOTH",
"93.5 1153.667 OFFCURVE",
"86 1172 OFFCURVE",
"86 1194 CURVE SMOOTH",
"86 1208.667 OFFCURVE",
"89.333 1223 OFFCURVE",
"96 1237 CURVE SMOOTH",
"116.667 1284.333 OFFCURVE",
"146 1325.167 OFFCURVE",
"184 1359.5 CURVE SMOOTH",
"222 1393.833 OFFCURVE",
"267.5 1420.333 OFFCURVE",
"320.5 1439 CURVE SMOOTH",
"373.5 1457.667 OFFCURVE",
"433.333 1467 OFFCURVE",
"500 1467 CURVE SMOOTH",
"587.333 1467 OFFCURVE",
"662.833 1451.167 OFFCURVE",
"726.5 1419.5 CURVE SMOOTH",
"790.167 1387.833 OFFCURVE",
"839.333 1345.5 OFFCURVE",
"874 1292.5 CURVE SMOOTH",
"908.667 1239.5 OFFCURVE",
"926 1180.333 OFFCURVE",
"926 1115 CURVE SMOOTH",
"926 1051 OFFCURVE",
"909.667 994.833 OFFCURVE",
"877 946.5 CURVE SMOOTH",
"844.333 898.167 OFFCURVE",
"798.333 860.5 OFFCURVE",
"739 833.5 CURVE SMOOTH",
"679.667 806.5 OFFCURVE",
"610 793 OFFCURVE",
"530 793 CURVE",
"532 856 LINE",
"612 856 OFFCURVE",
"683.5 842.167 OFFCURVE",
"746.5 814.5 CURVE SMOOTH",
"809.5 786.833 OFFCURVE",
"859 747.833 OFFCURVE",
"895 697.5 CURVE SMOOTH",
"931 647.167 OFFCURVE",
"949 587.667 OFFCURVE",
"949 519 CURVE SMOOTH",
"949 451.667 OFFCURVE",
"931.833 391.667 OFFCURVE",
"897.5 339 CURVE SMOOTH",
"863.167 286.333 OFFCURVE",
"816.167 245 OFFCURVE",
"756.5 215 CURVE SMOOTH",
"696.833 185 OFFCURVE",
"629 170 OFFCURVE",
"553 170 CURVE SMOOTH",
"510.333 170 OFFCURVE",
"471.5 174.667 OFFCURVE",
"436.5 184 CURVE SMOOTH",
"401.5 193.333 OFFCURVE",
"370.667 206.167 OFFCURVE",
"344 222.5 CURVE SMOOTH",
"317.333 238.833 OFFCURVE",
"295 257 OFFCURVE",
"277 277 CURVE",
"310 277 LINE",
"437 86 LINE SMOOTH",
"443 76.667 OFFCURVE",
"447.333 67.667 OFFCURVE",
"450 59 CURVE SMOOTH",
"452.667 50.333 OFFCURVE",
"454 41.667 OFFCURVE",
"454 33 CURVE SMOOTH",
"454 12.333 OFFCURVE",
"447 -5.333 OFFCURVE",
"433 -20 CURVE SMOOTH",
"419 -34.667 OFFCURVE",
"400.667 -42 OFFCURVE",
"378 -42 CURVE SMOOTH",
"378 -42 LINE SMOOTH"
);
}
);
width = 1019;
}
);
note = "three-deva";
unicode = 0969;
},
{
glyphname = "four-deva";
layers = (
{
layerId = "65DB373A-59A7-4FB5-ABD2-B802649BC7D7";
paths = (
{
closed = 1;
nodes = (
"466 666 OFFCURVE",
"381 684.667 OFFCURVE",
"307 722 CURVE SMOOTH",
"233 759.333 OFFCURVE",
"175 812.333 OFFCURVE",
"133 881 CURVE SMOOTH",
"91 949.667 OFFCURVE",
"70 1030.667 OFFCURVE",
"70 1124 CURVE SMOOTH",
"70 1171.333 OFFCURVE",
"76 1218.833 OFFCURVE",
"88 1266.5 CURVE SMOOTH",
"100 1314.167 OFFCURVE",
"115.667 1358 OFFCURVE",
"135 1398 CURVE SMOOTH",
"144.333 1417.333 OFFCURVE",
"155.5 1433.667 OFFCURVE",
"168.5 1447 CURVE SMOOTH",
"181.5 1460.333 OFFCURVE",
"200.333 1467 OFFCURVE",
"225 1467 CURVE SMOOTH",
"252.333 1467 OFFCURVE",
"273.833 1459 OFFCURVE",
"289.5 1443 CURVE SMOOTH",
"305.167 1427 OFFCURVE",
"313 1407.667 OFFCURVE",
"313 1385 CURVE SMOOTH",
"313 1377 OFFCURVE",
"312 1369 OFFCURVE",
"310 1361 CURVE SMOOTH",
"308 1353 OFFCURVE",
"305 1344.667 OFFCURVE",
"301 1336 CURVE SMOOTH",
"293 1320 OFFCURVE",
"282.833 1292.833 OFFCURVE",
"270.5 1254.5 CURVE SMOOTH",
"258.167 1216.167 OFFCURVE",
"252 1171 OFFCURVE",
"252 1119 CURVE SMOOTH",
"252 1050.333 OFFCURVE",
"265.167 992.333 OFFCURVE",
"291.5 945 CURVE SMOOTH",
"317.833 897.667 OFFCURVE",
"354.333 861.667 OFFCURVE",
"401 837 CURVE SMOOTH",
"447.667 812.333 OFFCURVE",
"501.333 800 OFFCURVE",
"562 800 CURVE SMOOTH",
"622.667 800 OFFCURVE",
"676.333 812.333 OFFCURVE",
"723 837 CURVE SMOOTH",
"769.667 861.667 OFFCURVE",
"806.167 897.667 OFFCURVE",
"832.5 945 CURVE SMOOTH",
"858.833 992.333 OFFCURVE",
"872 1050.333 OFFCURVE",
"872 1119 CURVE SMOOTH",
"872 1171 OFFCURVE",
"865.833 1216.167 OFFCURVE",
"853.5 1254.5 CURVE SMOOTH",
"841.167 1292.833 OFFCURVE",
"831 1320 OFFCURVE",
"823 1336 CURVE SMOOTH",
"819 1344.667 OFFCURVE",
"816 1353 OFFCURVE",
"814 1361 CURVE SMOOTH",
"812 1369 OFFCURVE",
"811 1377 OFFCURVE",
"811 1385 CURVE SMOOTH",
"811 1407.667 OFFCURVE",
"819 1427 OFFCURVE",
"835 1443 CURVE SMOOTH",
"851 1459 OFFCURVE",
"872.333 1467 OFFCURVE",
"899 1467 CURVE SMOOTH",
"924.333 1467 OFFCURVE",
"943.333 1460.333 OFFCURVE",
"956 1447 CURVE SMOOTH",
"968.667 1433.667 OFFCURVE",
"979.667 1417.333 OFFCURVE",
"989 1398 CURVE SMOOTH",
"1008.333 1358 OFFCURVE",
"1024 1314.167 OFFCURVE",
"1036 1266.5 CURVE SMOOTH",
"1048 1218.833 OFFCURVE",
"1054 1171.333 OFFCURVE",
"1054 1124 CURVE SMOOTH",
"1054 1030.667 OFFCURVE",
"1033 949.667 OFFCURVE",
"991 881 CURVE SMOOTH",
"949 812.333 OFFCURVE",
"891 759.333 OFFCURVE",
"817 722 CURVE SMOOTH",
"743 684.667 OFFCURVE",
"658 666 OFFCURVE",
"562 666 CURVE SMOOTH",
"562 666 LINE SMOOTH"
);
},
{
closed = 1;
nodes = (
"482 0 OFFCURVE",
"410.167 16.5 OFFCURVE",
"346.5 49.5 CURVE SMOOTH",
"282.833 82.5 OFFCURVE",
"232.5 128 OFFCURVE",
"195.5 186 CURVE SMOOTH",
"158.5 244 OFFCURVE",
"140 310 OFFCURVE",
"140 384 CURVE SMOOTH",
"140 458 OFFCURVE",
"158.5 523.5 OFFCURVE",
"195.5 580.5 CURVE SMOOTH",
"232.5 637.5 OFFCURVE",
"282.833 682.333 OFFCURVE",
"346.5 715 CURVE SMOOTH",
"410.167 747.667 OFFCURVE",
"482 764 OFFCURVE",
"562 764 CURVE SMOOTH",
"642.667 764 OFFCURVE",
"714.667 747.667 OFFCURVE",
"778 715 CURVE SMOOTH",
"841.333 682.333 OFFCURVE",
"891.5 637.5 OFFCURVE",
"928.5 580.5 CURVE SMOOTH",
"965.5 523.5 OFFCURVE",
"984 458 OFFCURVE",
"984 384 CURVE SMOOTH",
"984 310 OFFCURVE",
"965.5 244 OFFCURVE",
"928.5 186 CURVE SMOOTH",
"891.5 128 OFFCURVE",
"841.333 82.5 OFFCURVE",
"778 49.5 CURVE SMOOTH",
"714.667 16.5 OFFCURVE",
"642.667 0 OFFCURVE",
"562 0 CURVE SMOOTH",
"562 0 LINE SMOOTH"
);
},
{
closed = 1;
nodes = (
"606.667 160 OFFCURVE",
"647.167 170.5 OFFCURVE",
"683.5 191.5 CURVE SMOOTH",
"719.833 212.5 OFFCURVE",
"748.667 241.167 OFFCURVE",
"770 277.5 CURVE SMOOTH",
"791.333 313.833 OFFCURVE",
"802 354.667 OFFCURVE",
"802 400 CURVE SMOOTH",
"802 445.333 OFFCURVE",
"791.333 486.167 OFFCURVE",
"770 522.5 CURVE SMOOTH",
"748.667 558.833 OFFCURVE",
"719.833 587.5 OFFCURVE",
"683.5 608.5 CURVE SMOOTH",
"647.167 629.5 OFFCURVE",
"606.667 640 OFFCURVE",
"562 640 CURVE SMOOTH",
"517.333 640 OFFCURVE",
"476.833 629.5 OFFCURVE",
"440.5 608.5 CURVE SMOOTH",
"404.167 587.5 OFFCURVE",
"375.333 558.833 OFFCURVE",
"354 522.5 CURVE SMOOTH",
"332.667 486.167 OFFCURVE",
"322 445.333 OFFCURVE",
"322 400 CURVE SMOOTH",
"322 354.667 OFFCURVE",
"332.667 313.833 OFFCURVE",
"354 277.5 CURVE SMOOTH",
"375.333 241.167 OFFCURVE",
"404.167 212.5 OFFCURVE",
"440.5 191.5 CURVE SMOOTH",
"476.833 170.5 OFFCURVE",
"517.333 160 OFFCURVE",
"562 160 CURVE",
"562 160 LINE"
);
}
);
width = 1124;
}
);
note = "four-deva";
unicode = 096A;
},
{
glyphname = "five-deva";
layers = (
{
layerId = "65DB373A-59A7-4FB5-ABD2-B802649BC7D7";
paths = (
{
closed = 1;
nodes = (
"1036.333 -42 OFFCURVE",
"1016.333 -34.667 OFFCURVE",
"1001 -20 CURVE SMOOTH",
"985.667 -5.333 OFFCURVE",
"975.333 15.333 OFFCURVE",
"970 42 CURVE SMOOTH",
"829 780 LINE",
"938 780 LINE",
"938.667 704 OFFCURVE",
"923 633.833 OFFCURVE",
"891 569.5 CURVE SMOOTH",
"859 505.167 OFFCURVE",
"811.167 453.5 OFFCURVE",
"747.5 414.5 CURVE SMOOTH",
"683.833 375.5 OFFCURVE",
"604.333 356 OFFCURVE",
"509 356 CURVE SMOOTH",
"411 356 OFFCURVE",
"327.833 377 OFFCURVE",
"259.5 419 CURVE SMOOTH",
"191.167 461 OFFCURVE",
"139.167 517 OFFCURVE",
"103.5 587 CURVE SMOOTH",
"67.833 657 OFFCURVE",
"50 734 OFFCURVE",
"50 818 CURVE SMOOTH",
"50 914 OFFCURVE",
"74 1015.167 OFFCURVE",
"122 1121.5 CURVE SMOOTH",
"170 1227.833 OFFCURVE",
"242.667 1327.333 OFFCURVE",
"340 1420 CURVE SMOOTH",
"355.333 1434.667 OFFCURVE",
"369.667 1446.167 OFFCURVE",
"383 1454.5 CURVE SMOOTH",
"396.333 1462.833 OFFCURVE",
"411.333 1467 OFFCURVE",
"428 1467 CURVE SMOOTH",
"453.333 1467 OFFCURVE",
"473.167 1459 OFFCURVE",
"487.5 1443 CURVE SMOOTH",
"501.833 1427 OFFCURVE",
"509 1408.333 OFFCURVE",
"509 1387 CURVE SMOOTH",
"509 1376.333 OFFCURVE",
"506.5 1365.5 OFFCURVE",
"501.5 1354.5 CURVE SMOOTH",
"496.5 1343.5 OFFCURVE",
"489.333 1333.333 OFFCURVE",
"480 1324 CURVE SMOOTH",
"404.667 1244.667 OFFCURVE",
"344.5 1163.167 OFFCURVE",
"299.5 1079.5 CURVE SMOOTH",
"254.5 995.833 OFFCURVE",
"232 911 OFFCURVE",
"232 825 CURVE SMOOTH",
"232 739.667 OFFCURVE",
"255.667 666.833 OFFCURVE",
"303 606.5 CURVE SMOOTH",
"350.333 546.167 OFFCURVE",
"420.667 516 OFFCURVE",
"514 516 CURVE SMOOTH",
"574 516 OFFCURVE",
"626.167 528.5 OFFCURVE",
"670.5 553.5 CURVE SMOOTH",
"714.833 578.5 OFFCURVE",
"749.5 611.833 OFFCURVE",
"774.5 653.5 CURVE SMOOTH",
"799.5 695.167 OFFCURVE",
"812.333 740.333 OFFCURVE",
"813 789 CURVE SMOOTH",
"813.667 819.667 OFFCURVE",
"822.167 843.833 OFFCURVE",
"838.5 861.5 CURVE SMOOTH",
"854.833 879.167 OFFCURVE",
"875.667 888 OFFCURVE",
"901 888 CURVE SMOOTH",
"925.667 888 OFFCURVE",
"946.333 880.5 OFFCURVE",
"963 865.5 CURVE SMOOTH",
"979.667 850.5 OFFCURVE",
"991 828 OFFCURVE",
"997 798 CURVE SMOOTH",
"1142 72 LINE",
"1143.333 67.333 OFFCURVE",
"1144.333 62.333 OFFCURVE",
"1145 57 CURVE SMOOTH",
"1145.667 51.667 OFFCURVE",
"1146 46.333 OFFCURVE",
"1146 41 CURVE SMOOTH",
"1146 17.667 OFFCURVE",
"1138.167 -2 OFFCURVE",
"1122.5 -18 CURVE SMOOTH",
"1106.833 -34 OFFCURVE",
"1086.333 -42 OFFCURVE",
"1061 -42 CURVE SMOOTH",
"1061 -42 LINE SMOOTH"
);
}
);
width = 1146;
}
);
note = "five-deva";
unicode = 096B;
},
{
glyphname = "six-deva";
layers = (
{
layerId = "65DB373A-59A7-4FB5-ABD2-B802649BC7D7";
paths = (
{
closed = 1;
nodes = (
"936.333 -42 OFFCURVE",
"917.333 -34.833 OFFCURVE",
"902 -20.5 CURVE SMOOTH",
"886.667 -6.167 OFFCURVE",
"876.333 14.333 OFFCURVE",
"871 41 CURVE SMOOTH",
"806 352 LINE",
"885 352 LINE",
"861.667 304 OFFCURVE",
"816.5 261.667 OFFCURVE",
"749.5 225 CURVE SMOOTH",
"682.5 188.333 OFFCURVE",
"598.333 170 OFFCURVE",
"497 170 CURVE SMOOTH",
"409 170 OFFCURVE",
"333.167 185 OFFCURVE",
"269.5 215 CURVE SMOOTH",
"205.833 245 OFFCURVE",
"156.667 286.333 OFFCURVE",
"122 339 CURVE SMOOTH",
"87.333 391.667 OFFCURVE",
"70 451.667 OFFCURVE",
"70 519 CURVE SMOOTH",
"70 587.667 OFFCURVE",
"88.167 647.167 OFFCURVE",
"124.5 697.5 CURVE SMOOTH",
"160.833 747.833 OFFCURVE",
"210.333 786.833 OFFCURVE",
"273 814.5 CURVE SMOOTH",
"335.667 842.167 OFFCURVE",
"407 856 OFFCURVE",
"487 856 CURVE",
"469 793 LINE",
"389.667 793 OFFCURVE",
"320.167 806.5 OFFCURVE",
"260.5 833.5 CURVE SMOOTH",
"200.833 860.5 OFFCURVE",
"154.667 898.167 OFFCURVE",
"122 946.5 CURVE SMOOTH",
"89.333 994.833 OFFCURVE",
"73 1051 OFFCURVE",
"73 1115 CURVE SMOOTH",
"73 1180.333 OFFCURVE",
"90.333 1239.5 OFFCURVE",
"125 1292.5 CURVE SMOOTH",
"159.667 1345.5 OFFCURVE",
"209 1387.833 OFFCURVE",
"273 1419.5 CURVE SMOOTH",
"337 1451.167 OFFCURVE",
"412.333 1467 OFFCURVE",
"499 1467 CURVE SMOOTH",
"607 1467 OFFCURVE",
"696.333 1446.333 OFFCURVE",
"767 1405 CURVE SMOOTH",
"837.667 1363.667 OFFCURVE",
"888.333 1307.667 OFFCURVE",
"919 1237 CURVE",
"925.667 1223 OFFCURVE",
"929 1208.667 OFFCURVE",
"929 1194 CURVE SMOOTH",
"929 1172 OFFCURVE",
"921.5 1153.667 OFFCURVE",
"906.5 1139 CURVE SMOOTH",
"891.5 1124.333 OFFCURVE",
"871.667 1117 OFFCURVE",
"847 1117 CURVE SMOOTH",
"827.667 1117 OFFCURVE",
"811.333 1122 OFFCURVE",
"798 1132 CURVE SMOOTH",
"784.667 1142 OFFCURVE",
"772.667 1158.333 OFFCURVE",
"762 1181 CURVE SMOOTH",
"743.333 1221.667 OFFCURVE",
"712.833 1253.5 OFFCURVE",
"670.5 1276.5 CURVE SMOOTH",
"628.167 1299.5 OFFCURVE",
"572.333 1311 OFFCURVE",
"503 1311 CURVE SMOOTH",
"449.667 1311 OFFCURVE",
"404.333 1302 OFFCURVE",
"367 1284 CURVE SMOOTH",
"329.667 1266 OFFCURVE",
"301.5 1241.5 OFFCURVE",
"282.5 1210.5 CURVE SMOOTH",
"263.5 1179.5 OFFCURVE",
"254 1143.667 OFFCURVE",
"254 1103 CURVE SMOOTH",
"254 1058.333 OFFCURVE",
"265.167 1020 OFFCURVE",
"287.5 988 CURVE SMOOTH",
"309.833 956 OFFCURVE",
"340.833 931.667 OFFCURVE",
"380.5 915 CURVE SMOOTH",
"420.167 898.333 OFFCURVE",
"465.333 890 OFFCURVE",
"516 890 CURVE SMOOTH",
"669 890 LINE SMOOTH",
"693 890 OFFCURVE",
"712.5 883 OFFCURVE",
"727.5 869 CURVE SMOOTH",
"742.5 855 OFFCURVE",
"750 836.667 OFFCURVE",
"750 814 CURVE SMOOTH",
"750 791.333 OFFCURVE",
"742.5 773 OFFCURVE",
"727.5 759 CURVE SMOOTH",
"712.5 745 OFFCURVE",
"693 738 OFFCURVE",
"669 738 CURVE SMOOTH",
"517 738 LINE SMOOTH",
"433 738 OFFCURVE",
"367.833 719.667 OFFCURVE",
"321.5 683 CURVE SMOOTH",
"275.167 646.333 OFFCURVE",
"252 596.667 OFFCURVE",
"252 534 CURVE SMOOTH",
"252 470.667 OFFCURVE",
"275.833 420.833 OFFCURVE",
"323.5 384.5 CURVE SMOOTH",
"371.167 348.167 OFFCURVE",
"438.667 330 OFFCURVE",
"526 330 CURVE SMOOTH",
"577.333 330 OFFCURVE",
"622.167 337 OFFCURVE",
"660.5 351 CURVE SMOOTH",
"698.833 365 OFFCURVE",
"730 382.333 OFFCURVE",
"754 403 CURVE SMOOTH",
"777.333 423.667 OFFCURVE",
"796.833 438.167 OFFCURVE",
"812.5 446.5 CURVE SMOOTH",
"828.167 454.833 OFFCURVE",
"846.333 459 OFFCURVE",
"867 459 CURVE SMOOTH",
"901.667 459 OFFCURVE",
"926.833 448.667 OFFCURVE",
"942.5 428 CURVE SMOOTH",
"958.167 407.333 OFFCURVE",
"969 383.333 OFFCURVE",
"975 356 CURVE SMOOTH",
"1037 70 LINE SMOOTH",
"1039 61.333 OFFCURVE",
"1040 52.333 OFFCURVE",
"1040 43 CURVE SMOOTH",
"1040 18.333 OFFCURVE",
"1032.5 -2 OFFCURVE",
"1017.5 -18 CURVE SMOOTH",
"1002.5 -34 OFFCURVE",
"983 -42 OFFCURVE",
"959 -42 CURVE SMOOTH",
"959 -42 LINE SMOOTH"
);
}
);
width = 1043;
}
);
note = "six-deva";
unicode = 096C;
},
{
glyphname = "seven-deva";
layers = (
{
layerId = "65DB373A-59A7-4FB5-ABD2-B802649BC7D7";
paths = (
{
closed = 1;
nodes = (
"604.333 0 OFFCURVE",
"516.333 18 OFFCURVE",
"439 54 CURVE SMOOTH",
"361.667 90 OFFCURVE",
"296.167 140.5 OFFCURVE",
"242.5 205.5 CURVE SMOOTH",
"188.833 270.5 OFFCURVE",
"148 346.833 OFFCURVE",
"120 434.5 CURVE SMOOTH",
"92 522.167 OFFCURVE",
"78 617.667 OFFCURVE",
"78 721 CURVE SMOOTH",
"78 840.333 OFFCURVE",
"95.833 960.333 OFFCURVE",
"131.5 1081 CURVE SMOOTH",
"167.167 1201.667 OFFCURVE",
"214.333 1310 OFFCURVE",
"273 1406 CURVE SMOOTH",
"285.667 1426.667 OFFCURVE",
"299.333 1442 OFFCURVE",
"314 1452 CURVE SMOOTH",
"328.667 1462 OFFCURVE",
"345.667 1467 OFFCURVE",
"365 1467 CURVE SMOOTH",
"389.667 1467 OFFCURVE",
"410 1459 OFFCURVE",
"426 1443 CURVE SMOOTH",
"442 1427 OFFCURVE",
"450 1407.333 OFFCURVE",
"450 1384 CURVE SMOOTH",
"450 1375.333 OFFCURVE",
"448.833 1366.667 OFFCURVE",
"446.5 1358 CURVE SMOOTH",
"444.167 1349.333 OFFCURVE",
"440.333 1340.667 OFFCURVE",
"435 1332 CURVE",
"379 1232 OFFCURVE",
"335.833 1132.167 OFFCURVE",
"305.5 1032.5 CURVE SMOOTH",
"275.167 932.833 OFFCURVE",
"260 833.333 OFFCURVE",
"260 734 CURVE SMOOTH",
"260 621.333 OFFCURVE",
"278.833 522.833 OFFCURVE",
"316.5 438.5 CURVE SMOOTH",
"354.167 354.167 OFFCURVE",
"407 288.667 OFFCURVE",
"475 242 CURVE SMOOTH",
"543 195.333 OFFCURVE",
"622.333 172 OFFCURVE",
"713 172 CURVE SMOOTH",
"800.333 172 OFFCURVE",
"878.167 193.333 OFFCURVE",
"946.5 236 CURVE SMOOTH",
"1014.833 278.667 OFFCURVE",
"1068.5 340.333 OFFCURVE",
"1107.5 421 CURVE SMOOTH",
"1146.5 501.667 OFFCURVE",
"1166 599.333 OFFCURVE",
"1166 714 CURVE",
"1218 740 LINE",
"1218 692.667 OFFCURVE",
"1205.167 646.333 OFFCURVE",
"1179.5 601 CURVE SMOOTH",
"1153.833 555.667 OFFCURVE",
"1116.167 518.333 OFFCURVE",
"1066.5 489 CURVE SMOOTH",
"1016.833 459.667 OFFCURVE",
"955.667 445 OFFCURVE",
"883 445 CURVE SMOOTH",
"809 445 OFFCURVE",
"743 461.167 OFFCURVE",
"685 493.5 CURVE SMOOTH",
"627 525.833 OFFCURVE",
"581.333 570.167 OFFCURVE",
"548 626.5 CURVE SMOOTH",
"514.667 682.833 OFFCURVE",
"498 747 OFFCURVE",
"498 819 CURVE SMOOTH",
"498 894.333 OFFCURVE",
"515.833 961.333 OFFCURVE",
"551.5 1020 CURVE SMOOTH",
"587.167 1078.667 OFFCURVE",
"635.833 1124.667 OFFCURVE",
"697.5 1158 CURVE SMOOTH",
"759.167 1191.333 OFFCURVE",
"828.333 1208 OFFCURVE",
"905 1208 CURVE SMOOTH",
"988.333 1208 OFFCURVE",
"1062 1188.833 OFFCURVE",
"1126 1150.5 CURVE SMOOTH",
"1190 1112.167 OFFCURVE",
"1240 1054.167 OFFCURVE",
"1276 976.5 CURVE SMOOTH",
"1312 898.833 OFFCURVE",
"1330 801.333 OFFCURVE",
"1330 684 CURVE SMOOTH",
"1330 588 OFFCURVE",
"1316 498.667 OFFCURVE",
"1288 416 CURVE SMOOTH",
"1260 333.333 OFFCURVE",
"1219 260.833 OFFCURVE",
"1165 198.5 CURVE SMOOTH",
"1111 136.167 OFFCURVE",
"1045.167 87.5 OFFCURVE",
"967.5 52.5 CURVE SMOOTH",
"889.833 17.5 OFFCURVE",
"801.667 0 OFFCURVE",
"703 0 CURVE SMOOTH",
"703 0 LINE SMOOTH"
);
},
{
closed = 1;
nodes = (
"950.667 595 OFFCURVE",
"990.167 604.5 OFFCURVE",
"1024.5 623.5 CURVE SMOOTH",
"1058.833 642.5 OFFCURVE",
"1086 668.833 OFFCURVE",
"1106 702.5 CURVE SMOOTH",
"1126 736.167 OFFCURVE",
"1136 774.667 OFFCURVE",
"1136 818 CURVE SMOOTH",
"1136 861.333 OFFCURVE",
"1126 900.333 OFFCURVE",
"1106 935 CURVE SMOOTH",
"1086 969.667 OFFCURVE",
"1058.833 997.167 OFFCURVE",
"1024.5 1017.5 CURVE SMOOTH",
"990.167 1037.833 OFFCURVE",
"951.667 1048 OFFCURVE",
"909 1048 CURVE SMOOTH",
"866.333 1048 OFFCURVE",
"827.667 1038 OFFCURVE",
"793 1018 CURVE SMOOTH",
"758.333 998 OFFCURVE",
"730.833 970.5 OFFCURVE",
"710.5 935.5 CURVE SMOOTH",
"690.167 900.5 OFFCURVE",
"680 861 OFFCURVE",
"680 817 CURVE SMOOTH",
"680 775 OFFCURVE",
"689.667 737.167 OFFCURVE",
"709 703.5 CURVE SMOOTH",
"728.333 669.833 OFFCURVE",
"755 643.333 OFFCURVE",
"789 624 CURVE SMOOTH",
"823 604.667 OFFCURVE",
"862 595 OFFCURVE",
"906 595 CURVE",
"906 595 LINE"
);
}
);
width = 1400;
}
);
note = "seven-deva";
unicode = 096D;
},
{
glyphname = "eight-deva";
layers = (
{
layerId = "65DB373A-59A7-4FB5-ABD2-B802649BC7D7";
paths = (
{
closed = 1;
nodes = (
"441.333 0 OFFCURVE",
"355.167 18.667 OFFCURVE",
"281.5 56 CURVE SMOOTH",
"207.833 93.333 OFFCURVE",
"150.833 145 OFFCURVE",
"110.5 211 CURVE SMOOTH",
"70.167 277 OFFCURVE",
"50 352.667 OFFCURVE",
"50 438 CURVE SMOOTH",
"50 499.333 OFFCURVE",
"60.667 560.167 OFFCURVE",
"82 620.5 CURVE SMOOTH",
"103.333 680.833 OFFCURVE",
"129.667 738.833 OFFCURVE",
"161 794.5 CURVE SMOOTH",
"192.333 850.167 OFFCURVE",
"222.667 901.333 OFFCURVE",
"252 948 CURVE SMOOTH",
"549 1416 LINE SMOOTH",
"556.333 1427.333 OFFCURVE",
"566.833 1438.667 OFFCURVE",
"580.5 1450 CURVE SMOOTH",
"594.167 1461.333 OFFCURVE",
"611 1467 OFFCURVE",
"631 1467 CURVE SMOOTH",
"656.333 1467 OFFCURVE",
"676.833 1458.5 OFFCURVE",
"692.5 1441.5 CURVE SMOOTH",
"708.167 1424.5 OFFCURVE",
"716 1404.667 OFFCURVE",
"716 1382 CURVE SMOOTH",
"716 1371.333 OFFCURVE",
"714.167 1361.167 OFFCURVE",
"710.5 1351.5 CURVE SMOOTH",
"706.833 1341.833 OFFCURVE",
"702 1332.333 OFFCURVE",
"696 1323 CURVE SMOOTH",
"389 842 LINE SMOOTH",
"348.333 778 OFFCURVE",
"312 712.333 OFFCURVE",
"280 645 CURVE SMOOTH",
"248 577.667 OFFCURVE",
"232 510 OFFCURVE",
"232 442 CURVE SMOOTH",
"232 396.667 OFFCURVE",
"242.667 352.333 OFFCURVE",
"264 309 CURVE SMOOTH",
"285.333 265.667 OFFCURVE",
"319 230 OFFCURVE",
"365 202 CURVE SMOOTH",
"411 174 OFFCURVE",
"470.333 160 OFFCURVE",
"543 160 CURVE SMOOTH",
"617.667 160 OFFCURVE",
"678.5 178.5 OFFCURVE",
"725.5 215.5 CURVE SMOOTH",
"772.5 252.5 OFFCURVE",
"809.333 297.333 OFFCURVE",
"836 350 CURVE SMOOTH",
"847.333 372.667 OFFCURVE",
"860.167 389.833 OFFCURVE",
"874.5 401.5 CURVE SMOOTH",
"888.833 413.167 OFFCURVE",
"906.333 419 OFFCURVE",
"927 419 CURVE SMOOTH",
"953 419 OFFCURVE",
"973 411.167 OFFCURVE",
"987 395.5 CURVE SMOOTH",
"1001 379.833 OFFCURVE",
"1008 360.667 OFFCURVE",
"1008 338 CURVE SMOOTH",
"1008 324 OFFCURVE",
"1005 309.333 OFFCURVE",
"999 294 CURVE SMOOTH",
"977.667 241.333 OFFCURVE",
"946.167 192.667 OFFCURVE",
"904.5 148 CURVE SMOOTH",
"862.833 103.333 OFFCURVE",
"811.5 67.5 OFFCURVE",
"750.5 40.5 CURVE SMOOTH",
"689.5 13.5 OFFCURVE",
"619.333 0 OFFCURVE",
"540 0 CURVE SMOOTH",
"540 0 LINE SMOOTH"
);
}
);
width = 1041;
}
);
note = "eight-deva";
unicode = 096E;
},
{
glyphname = "nine-deva";
layers = (
{
layerId = "65DB373A-59A7-4FB5-ABD2-B802649BC7D7";
paths = (
{
closed = 1;
nodes = (
"664.333 -42 OFFCURVE",
"642.833 -33.5 OFFCURVE",
"628.5 -16.5 CURVE SMOOTH",
"614.167 0.5 OFFCURVE",
"605.667 22 OFFCURVE",
"603 48 CURVE SMOOTH",
"601 72.667 OFFCURVE",
"597.833 96.833 OFFCURVE",
"593.5 120.5 CURVE SMOOTH",
"589.167 144.167 OFFCURVE",
"580.667 170 OFFCURVE",
"568 198 CURVE SMOOTH",
"555.333 226 OFFCURVE",
"534.667 259.333 OFFCURVE",
"506 298 CURVE SMOOTH",
"222 684 LINE SMOOTH",
"186.667 732.667 OFFCURVE",
"157.667 778.5 OFFCURVE",
"135 821.5 CURVE SMOOTH",
"112.333 864.5 OFFCURVE",
"95.833 906 OFFCURVE",
"85.5 946 CURVE SMOOTH",
"75.167 986 OFFCURVE",
"70 1026 OFFCURVE",
"70 1066 CURVE SMOOTH",
"70 1139.333 OFFCURVE",
"87.167 1206.5 OFFCURVE",
"121.5 1267.5 CURVE SMOOTH",
"155.833 1328.5 OFFCURVE",
"204.333 1377.167 OFFCURVE",
"267 1413.5 CURVE SMOOTH",
"329.667 1449.833 OFFCURVE",
"403.333 1468 OFFCURVE",
"488 1468 CURVE SMOOTH",
"566 1468 OFFCURVE",
"636.167 1451 OFFCURVE",
"698.5 1417 CURVE SMOOTH",
"760.833 1383 OFFCURVE",
"810 1336.667 OFFCURVE",
"846 1278 CURVE SMOOTH",
"882 1219.333 OFFCURVE",
"900 1152.667 OFFCURVE",
"900 1078 CURVE SMOOTH",
"900 1006 OFFCURVE",
"883.667 942.167 OFFCURVE",
"851 886.5 CURVE SMOOTH",
"818.333 830.833 OFFCURVE",
"773.167 787 OFFCURVE",
"715.5 755 CURVE SMOOTH",
"657.833 723 OFFCURVE",
"592 707 OFFCURVE",
"518 707 CURVE SMOOTH",
"442 707 OFFCURVE",
"381 721.833 OFFCURVE",
"335 751.5 CURVE SMOOTH",
"289 781.167 OFFCURVE",
"257.333 819.667 OFFCURVE",
"240 867 CURVE",
"284 867 LINE",
"298 849 OFFCURVE",
"312.833 830 OFFCURVE",
"328.5 810 CURVE SMOOTH",
"344.167 790 OFFCURVE",
"357.333 772.667 OFFCURVE",
"368 758 CURVE SMOOTH",
"654 384 LINE SMOOTH",
"688.667 338.667 OFFCURVE",
"714.833 296 OFFCURVE",
"732.5 256 CURVE SMOOTH",
"750.167 216 OFFCURVE",
"762 179.333 OFFCURVE",
"768 146 CURVE SMOOTH",
"774 112.667 OFFCURVE",
"777.333 83.333 OFFCURVE",
"778 58 CURVE SMOOTH",
"779.333 27.333 OFFCURVE",
"772 3 OFFCURVE",
"756 -15 CURVE SMOOTH",
"740 -33 OFFCURVE",
"719 -42 OFFCURVE",
"693 -42 CURVE SMOOTH",
"693 -42 LINE SMOOTH"
);
},
{
closed = 1;
nodes = (
"532.333 845 OFFCURVE",
"572.333 854.833 OFFCURVE",
"607 874.5 CURVE SMOOTH",
"641.667 894.167 OFFCURVE",
"668.833 921.167 OFFCURVE",
"688.5 955.5 CURVE SMOOTH",
"708.167 989.833 OFFCURVE",
"718 1028.667 OFFCURVE",
"718 1072 CURVE SMOOTH",
"718 1117.333 OFFCURVE",
"707.667 1157.667 OFFCURVE",
"687 1193 CURVE SMOOTH",
"666.333 1228.333 OFFCURVE",
"638.333 1256.333 OFFCURVE",
"603 1277 CURVE SMOOTH",
"567.667 1297.667 OFFCURVE",
"528 1308 OFFCURVE",
"484 1308 CURVE SMOOTH",
"440 1308 OFFCURVE",
"400.5 1297.667 OFFCURVE",
"365.5 1277 CURVE SMOOTH",
"330.5 1256.333 OFFCURVE",
"302.833 1228.167 OFFCURVE",
"282.5 1192.5 CURVE SMOOTH",
"262.167 1156.833 OFFCURVE",
"252 1117 OFFCURVE",
"252 1073 CURVE SMOOTH",
"252 1029 OFFCURVE",
"262.167 989.833 OFFCURVE",
"282.5 955.5 CURVE SMOOTH",
"302.833 921.167 OFFCURVE",
"330.833 894.167 OFFCURVE",
"366.5 874.5 CURVE SMOOTH",
"402.167 854.833 OFFCURVE",
"442.333 845 OFFCURVE",
"487 845 CURVE",
"487 845 LINE"
);
}
);
width = 946;
}
);
note = "nine-deva";
unicode = 096F;
},
{
glyphname = "zero-ar";
layers = (
{
layerId = "65DB373A-59A7-4FB5-ABD2-B802649BC7D7";
paths = (
{
closed = 1;
nodes = (
"235.667 577 OFFCURVE",
"208.833 584.167 OFFCURVE",
"184.5 598.5 CURVE SMOOTH",
"160.167 612.833 OFFCURVE",
"140.833 632 OFFCURVE",
"126.5 656 CURVE SMOOTH",
"112.167 680 OFFCURVE",
"105 706.667 OFFCURVE",
"105 736 CURVE SMOOTH",
"105 765.333 OFFCURVE",
"112.167 792 OFFCURVE",
"126.5 816 CURVE SMOOTH",
"140.833 840 OFFCURVE",
"160.167 859.167 OFFCURVE",
"184.5 873.5 CURVE SMOOTH",
"208.833 887.833 OFFCURVE",
"235.667 895 OFFCURVE",
"265 895 CURVE SMOOTH",
"293.667 895 OFFCURVE",
"319.833 887.833 OFFCURVE",
"343.5 873.5 CURVE SMOOTH",
"367.167 859.167 OFFCURVE",
"386.167 840 OFFCURVE",
"400.5 816 CURVE SMOOTH",
"414.833 792 OFFCURVE",
"422 765.333 OFFCURVE",
"422 736 CURVE SMOOTH",
"422 706.667 OFFCURVE",
"414.833 680 OFFCURVE",
"400.5 656 CURVE SMOOTH",
"386.167 632 OFFCURVE",
"367.167 612.833 OFFCURVE",
"343.5 598.5 CURVE SMOOTH",
"319.833 584.167 OFFCURVE",
"293.667 577 OFFCURVE",
"265 577 CURVE SMOOTH",
"265 577 LINE SMOOTH"
);
}
);
width = 526;
}
);
note = "zero-ar";
unicode = 0660;
},
{
glyphname = "one-ar";
layers = (
{
layerId = "65DB373A-59A7-4FB5-ABD2-B802649BC7D7";
paths = (
{
closed = 1;
nodes = (
"318.333 -24 OFFCURVE",
"298 -15.667 OFFCURVE",
"284 1 CURVE SMOOTH",
"270 17.667 OFFCURVE",
"261.333 39 OFFCURVE",
"258 65 CURVE SMOOTH",
"117 1356 LINE SMOOTH",
"113 1392.667 OFFCURVE",
"119 1420.333 OFFCURVE",
"135 1439 CURVE SMOOTH",
"151 1457.667 OFFCURVE",
"172.333 1467 OFFCURVE",
"199 1467 CURVE SMOOTH",
"225.667 1467 OFFCURVE",
"246 1458.667 OFFCURVE",
"260 1442 CURVE SMOOTH",
"274 1425.333 OFFCURVE",
"282.333 1404 OFFCURVE",
"285 1378 CURVE SMOOTH",
"426 77 LINE SMOOTH",
"429.333 45.667 OFFCURVE",
"423 21 OFFCURVE",
"407 3 CURVE SMOOTH",
"391 -15 OFFCURVE",
"370.333 -24 OFFCURVE",
"345 -24 CURVE SMOOTH",
"345 -24 LINE SMOOTH"
);
}
);
width = 539;
}
);
note = "one-ar";
unicode = 0661;
},
{
glyphname = "two-ar";
layers = (
{
layerId = "65DB373A-59A7-4FB5-ABD2-B802649BC7D7";
paths = (
{
closed = 1;
nodes = (
"324.333 -24 OFFCURVE",
"304 -15.667 OFFCURVE",
"290 1 CURVE SMOOTH",
"276 17.667 OFFCURVE",
"267.333 39 OFFCURVE",
"264 65 CURVE SMOOTH",
"113 1356 LINE SMOOTH",
"108.333 1392.667 OFFCURVE",
"114.167 1420.333 OFFCURVE",
"130.5 1439 CURVE SMOOTH",
"146.833 1457.667 OFFCURVE",
"168.333 1467 OFFCURVE",
"195 1467 CURVE SMOOTH",
"221.667 1467 OFFCURVE",
"242 1458.667 OFFCURVE",
"256 1442 CURVE SMOOTH",
"270 1425.333 OFFCURVE",
"278.333 1404 OFFCURVE",
"281 1378 CURVE SMOOTH",
"432 77 LINE SMOOTH",
"435.333 45.667 OFFCURVE",
"429 21 OFFCURVE",
"413 3 CURVE SMOOTH",
"397 -15 OFFCURVE",
"376.333 -24 OFFCURVE",
"351 -24 CURVE SMOOTH",
"351 -24 LINE SMOOTH"
);
},
{
closed = 1;
nodes = (
"516.333 873 OFFCURVE",
"420 904.667 OFFCURVE",
"346 968 CURVE SMOOTH",
"272 1031.333 OFFCURVE",
"222.667 1128.333 OFFCURVE",
"198 1259 CURVE",
"281 1378 LINE",
"302.333 1277.333 OFFCURVE",
"343.667 1201.333 OFFCURVE",
"405 1150 CURVE SMOOTH",
"466.333 1098.667 OFFCURVE",
"539 1073 OFFCURVE",
"623 1073 CURVE SMOOTH",
"706.333 1073 OFFCURVE",
"772 1101 OFFCURVE",
"820 1157 CURVE SMOOTH",
"868 1213 OFFCURVE",
"892 1286.667 OFFCURVE",
"892 1378 CURVE SMOOTH",
"892 1405.333 OFFCURVE",
"898.833 1427 OFFCURVE",
"912.5 1443 CURVE SMOOTH",
"926.167 1459 OFFCURVE",
"945.333 1467 OFFCURVE",
"970 1467 CURVE SMOOTH",
"994.667 1467 OFFCURVE",
"1013.833 1459 OFFCURVE",
"1027.5 1443 CURVE SMOOTH",
"1041.167 1427 OFFCURVE",
"1048 1405.333 OFFCURVE",
"1048 1378 CURVE SMOOTH",
"1048 1307.333 OFFCURVE",
"1039 1241.333 OFFCURVE",
"1021 1180 CURVE SMOOTH",
"1003 1118.667 OFFCURVE",
"976.667 1065 OFFCURVE",
"942 1019 CURVE SMOOTH",
"907.333 973 OFFCURVE",
"864.333 937.167 OFFCURVE",
"813 911.5 CURVE SMOOTH",
"761.667 885.833 OFFCURVE",
"702.333 873 OFFCURVE",
"635 873 CURVE SMOOTH",
"635 873 LINE SMOOTH"
);
}
);
width = 1128;
}
);
note = "two-ar";
unicode = 0662;
},
{
glyphname = "three-ar";
layers = (
{
layerId = "65DB373A-59A7-4FB5-ABD2-B802649BC7D7";
paths = (
{
closed = 1;
nodes = (
"324.333 -24 OFFCURVE",
"304 -15.667 OFFCURVE",
"290 1 CURVE SMOOTH",
"276 17.667 OFFCURVE",
"267.333 39 OFFCURVE",
"264 65 CURVE SMOOTH",
"113 1356 LINE SMOOTH",
"108.333 1392.667 OFFCURVE",
"114.167 1420.333 OFFCURVE",
"130.5 1439 CURVE SMOOTH",
"146.833 1457.667 OFFCURVE",
"168.333 1467 OFFCURVE",
"195 1467 CURVE SMOOTH",
"221.667 1467 OFFCURVE",
"242 1458.667 OFFCURVE",
"256 1442 CURVE SMOOTH",
"270 1425.333 OFFCURVE",
"278.333 1404 OFFCURVE",
"281 1378 CURVE SMOOTH",
"432 77 LINE SMOOTH",
"435.333 45.667 OFFCURVE",
"429 21 OFFCURVE",
"413 3 CURVE SMOOTH",
"397 -15 OFFCURVE",
"376.333 -24 OFFCURVE",
"351 -24 CURVE SMOOTH",
"351 -24 LINE SMOOTH"
);
},
{
closed = 1;
nodes = (
"454.333 865 OFFCURVE",
"411.667 875.167 OFFCURVE",
"375 895.5 CURVE SMOOTH",
"338.333 915.833 OFFCURVE",
"307.167 948.5 OFFCURVE",
"281.5 993.5 CURVE SMOOTH",
"255.833 1038.5 OFFCURVE",
"234 1097.667 OFFCURVE",
"216 1171 CURVE",
"281 1378 LINE",
"289 1306 OFFCURVE",
"301.5 1246.833 OFFCURVE",
"318.5 1200.5 CURVE SMOOTH",
"335.5 1154.167 OFFCURVE",
"357.5 1120 OFFCURVE",
"384.5 1098 CURVE SMOOTH",
"411.5 1076 OFFCURVE",
"443.333 1065 OFFCURVE",
"480 1065 CURVE SMOOTH",
"582 1065 OFFCURVE",
"633 1148 OFFCURVE",
"633 1314 CURVE SMOOTH",
"633 1384 LINE SMOOTH",
"633 1409.333 OFFCURVE",
"639.333 1429.5 OFFCURVE",
"652 1444.5 CURVE SMOOTH",
"664.667 1459.5 OFFCURVE",
"683.333 1467 OFFCURVE",
"708 1467 CURVE SMOOTH",
"732.667 1467 OFFCURVE",
"751.333 1459.5 OFFCURVE",
"764 1444.5 CURVE SMOOTH",
"776.667 1429.5 OFFCURVE",
"783 1409.333 OFFCURVE",
"783 1384 CURVE SMOOTH",
"783 1312 LINE SMOOTH",
"783 1228 OFFCURVE",
"797 1165.833 OFFCURVE",
"825 1125.5 CURVE SMOOTH",
"853 1085.167 OFFCURVE",
"892 1065 OFFCURVE",
"942 1065 CURVE SMOOTH",
"997.333 1065 OFFCURVE",
"1036.667 1088.333 OFFCURVE",
"1060 1135 CURVE SMOOTH",
"1083.333 1181.667 OFFCURVE",
"1095 1247.333 OFFCURVE",
"1095 1332 CURVE SMOOTH",
"1095 1339.333 OFFCURVE",
"1095 1347.333 OFFCURVE",
"1095 1356 CURVE SMOOTH",
"1095 1364.667 OFFCURVE",
"1094.667 1374 OFFCURVE",
"1094 1384 CURVE",
"1093.333 1410 OFFCURVE",
"1099.167 1430.333 OFFCURVE",
"1111.5 1445 CURVE SMOOTH",
"1123.833 1459.667 OFFCURVE",
"1141 1467 OFFCURVE",
"1163 1467 CURVE SMOOTH",
"1187.667 1467 OFFCURVE",
"1206 1459.5 OFFCURVE",
"1218 1444.5 CURVE SMOOTH",
"1230 1429.5 OFFCURVE",
"1237.333 1409.333 OFFCURVE",
"1240 1384 CURVE SMOOTH",
"1241.333 1371.333 OFFCURVE",
"1242.5 1358 OFFCURVE",
"1243.5 1344 CURVE SMOOTH",
"1244.5 1330 OFFCURVE",
"1245 1315.333 OFFCURVE",
"1245 1300 CURVE SMOOTH",
"1245 1212 OFFCURVE",
"1233.833 1135.5 OFFCURVE",
"1211.5 1070.5 CURVE SMOOTH",
"1189.167 1005.5 OFFCURVE",
"1156.333 955 OFFCURVE",
"1113 919 CURVE SMOOTH",
"1069.667 883 OFFCURVE",
"1015.667 865 OFFCURVE",
"951 865 CURVE SMOOTH",
"890.333 865 OFFCURVE",
"838.5 880.333 OFFCURVE",
"795.5 911 CURVE SMOOTH",
"752.5 941.667 OFFCURVE",
"724.333 981 OFFCURVE",
"711 1029 CURVE",
"720 1029 LINE",
"710.667 979.667 OFFCURVE",
"686.667 940 OFFCURVE",
"648 910 CURVE SMOOTH",
"609.333 880 OFFCURVE",
"561 865 OFFCURVE",
"503 865 CURVE SMOOTH",
"503 865 LINE SMOOTH"
);
}
);
width = 1325;
}
);
note = "three-ar";
unicode = 0663;
},
{
glyphname = "four-ar";
layers = (
{
layerId = "65DB373A-59A7-4FB5-ABD2-B802649BC7D7";
paths = (
{
closed = 1;
nodes = (
"383.333 -20 OFFCURVE",
"281.667 12.167 OFFCURVE",
"213 76.5 CURVE SMOOTH",
"144.333 140.833 OFFCURVE",
"110 220 OFFCURVE",
"110 314 CURVE SMOOTH",
"110 408 OFFCURVE",
"148.167 493.5 OFFCURVE",
"224.5 570.5 CURVE SMOOTH",
"300.833 647.5 OFFCURVE",
"413.667 715.667 OFFCURVE",
"563 775 CURVE",
"563 670 LINE",
"475.667 681.333 OFFCURVE",
"398.5 699.5 OFFCURVE",
"331.5 724.5 CURVE SMOOTH",
"264.5 749.5 OFFCURVE",
"212.167 783.833 OFFCURVE",
"174.5 827.5 CURVE SMOOTH",
"136.833 871.167 OFFCURVE",
"118 925.667 OFFCURVE",
"118 991 CURVE SMOOTH",
"118 1089 OFFCURVE",
"163.167 1176 OFFCURVE",
"253.5 1252 CURVE SMOOTH",
"343.833 1328 OFFCURVE",
"469.667 1391 OFFCURVE",
"631 1441 CURVE SMOOTH",
"659.667 1450.333 OFFCURVE",
"683.833 1451.667 OFFCURVE",
"703.5 1445 CURVE SMOOTH",
"723.167 1438.333 OFFCURVE",
"738 1427.167 OFFCURVE",
"748 1411.5 CURVE SMOOTH",
"758 1395.833 OFFCURVE",
"763 1379 OFFCURVE",
"763 1361 CURVE SMOOTH",
"763 1339 OFFCURVE",
"756.5 1320.5 OFFCURVE",
"743.5 1305.5 CURVE SMOOTH",
"730.5 1290.5 OFFCURVE",
"712.333 1279.333 OFFCURVE",
"689 1272 CURVE SMOOTH",
"558.333 1231.333 OFFCURVE",
"458.833 1186.667 OFFCURVE",
"390.5 1138 CURVE SMOOTH",
"322.167 1089.333 OFFCURVE",
"288 1042.667 OFFCURVE",
"288 998 CURVE SMOOTH",
"288 969.333 OFFCURVE",
"298.833 945 OFFCURVE",
"320.5 925 CURVE SMOOTH",
"342.167 905 OFFCURVE",
"371 888.833 OFFCURVE",
"407 876.5 CURVE SMOOTH",
"443 864.167 OFFCURVE",
"482.667 855 OFFCURVE",
"526 849 CURVE SMOOTH",
"569.333 843 OFFCURVE",
"612.333 839.333 OFFCURVE",
"655 838 CURVE SMOOTH",
"683.667 837.333 OFFCURVE",
"706.167 828.833 OFFCURVE",
"722.5 812.5 CURVE SMOOTH",
"738.833 796.167 OFFCURVE",
"747 775.333 OFFCURVE",
"747 750 CURVE SMOOTH",
"747 730 OFFCURVE",
"741 712.167 OFFCURVE",
"729 696.5 CURVE SMOOTH",
"717 680.833 OFFCURVE",
"698 667.667 OFFCURVE",
"672 657 CURVE SMOOTH",
"542 603.667 OFFCURVE",
"444.167 551 OFFCURVE",
"378.5 499 CURVE SMOOTH",
"312.833 447 OFFCURVE",
"280 390.667 OFFCURVE",
"280 330 CURVE SMOOTH",
"280 281.333 OFFCURVE",
"301.667 244.167 OFFCURVE",
"345 218.5 CURVE SMOOTH",
"388.333 192.833 OFFCURVE",
"452 180 OFFCURVE",
"536 180 CURVE SMOOTH",
"585.333 180 OFFCURVE",
"631.333 183.833 OFFCURVE",
"674 191.5 CURVE SMOOTH",
"716.667 199.167 OFFCURVE",
"748 205.333 OFFCURVE",
"768 210 CURVE SMOOTH",
"811.333 221.333 OFFCURVE",
"844.333 217 OFFCURVE",
"867 197 CURVE SMOOTH",
"889.667 177 OFFCURVE",
"901 152.667 OFFCURVE",
"901 124 CURVE SMOOTH",
"901 99.333 OFFCURVE",
"893.667 78.167 OFFCURVE",
"879 60.5 CURVE SMOOTH",
"864.333 42.833 OFFCURVE",
"843 30 OFFCURVE",
"815 22 CURVE SMOOTH",
"776.333 11.333 OFFCURVE",
"729.5 1.667 OFFCURVE",
"674.5 -7 CURVE SMOOTH",
"619.5 -15.667 OFFCURVE",
"567.333 -20 OFFCURVE",
"518 -20 CURVE SMOOTH",
"518 -20 LINE SMOOTH"
);
}
);
width = 908;
}
);
note = "four-ar";
unicode = 0664;
},
{
glyphname = "five-ar";
layers = (
{
layerId = "65DB373A-59A7-4FB5-ABD2-B802649BC7D7";
paths = (
{
closed = 1;
nodes = (
"386.667 181 OFFCURVE",
"279.5 224.167 OFFCURVE",
"204.5 310.5 CURVE SMOOTH",
"129.5 396.833 OFFCURVE",
"92 516 OFFCURVE",
"92 668 CURVE SMOOTH",
"92 754 OFFCURVE",
"102.833 835.167 OFFCURVE",
"124.5 911.5 CURVE SMOOTH",
"146.167 987.833 OFFCURVE",
"177.167 1055.333 OFFCURVE",
"217.5 1114 CURVE SMOOTH",
"257.833 1172.667 OFFCURVE",
"305.667 1218.833 OFFCURVE",
"361 1252.5 CURVE SMOOTH",
"416.333 1286.167 OFFCURVE",
"478 1303 OFFCURVE",
"546 1303 CURVE SMOOTH",
"612.667 1303 OFFCURVE",
"672.5 1286.833 OFFCURVE",
"725.5 1254.5 CURVE SMOOTH",
"778.5 1222.167 OFFCURVE",
"823.667 1177.667 OFFCURVE",
"861 1121 CURVE SMOOTH",
"898.333 1064.333 OFFCURVE",
"926.833 999.167 OFFCURVE",
"946.5 925.5 CURVE SMOOTH",
"966.167 851.833 OFFCURVE",
"976 773.667 OFFCURVE",
"976 691 CURVE SMOOTH",
"976 531 OFFCURVE",
"936.667 406 OFFCURVE",
"858 316 CURVE SMOOTH",
"779.333 226 OFFCURVE",
"668.667 181 OFFCURVE",
"526 181 CURVE SMOOTH",
"526 181 LINE SMOOTH"
);
},
{
closed = 1;
nodes = (
"617.667 381 OFFCURVE",
"687.5 409.333 OFFCURVE",
"736.5 466 CURVE SMOOTH",
"785.5 522.667 OFFCURVE",
"810 602 OFFCURVE",
"810 704 CURVE SMOOTH",
"810 774.667 OFFCURVE",
"799.5 840.167 OFFCURVE",
"778.5 900.5 CURVE SMOOTH",
"757.5 960.833 OFFCURVE",
"727.333 1009.667 OFFCURVE",
"688 1047 CURVE SMOOTH",
"648.667 1084.333 OFFCURVE",
"601.333 1103 OFFCURVE",
"546 1103 CURVE SMOOTH",
"488.667 1103 OFFCURVE",
"438.333 1082.833 OFFCURVE",
"395 1042.5 CURVE SMOOTH",
"351.667 1002.167 OFFCURVE",
"318 949.833 OFFCURVE",
"294 885.5 CURVE SMOOTH",
"270 821.167 OFFCURVE",
"258 752.667 OFFCURVE",
"258 680 CURVE SMOOTH",
"258 587.333 OFFCURVE",
"281 514.333 OFFCURVE",
"327 461 CURVE SMOOTH",
"373 407.667 OFFCURVE",
"439.667 381 OFFCURVE",
"527 381 CURVE",
"527 381 LINE"
);
}
);
width = 1068;
}
);
note = "five-ar";
unicode = 0665;
},
{
glyphname = "six-ar";
layers = (
{
layerId = "65DB373A-59A7-4FB5-ABD2-B802649BC7D7";
paths = (
{
closed = 1;
nodes = (
"724.333 -24 OFFCURVE",
"704 -15.667 OFFCURVE",
"690 1 CURVE SMOOTH",
"676 17.667 OFFCURVE",
"667.333 39 OFFCURVE",
"664 65 CURVE SMOOTH",
"521 1332 LINE SMOOTH",
"517 1368.667 OFFCURVE",
"523 1396.333 OFFCURVE",
"539 1415 CURVE SMOOTH",
"555 1433.667 OFFCURVE",
"576.333 1443 OFFCURVE",
"603 1443 CURVE SMOOTH",
"629.667 1443 OFFCURVE",
"650 1434.667 OFFCURVE",
"664 1418 CURVE SMOOTH",
"678 1401.333 OFFCURVE",
"686.333 1380 OFFCURVE",
"689 1354 CURVE SMOOTH",
"832 77 LINE SMOOTH",
"835.333 45.667 OFFCURVE",
"829 21 OFFCURVE",
"813 3 CURVE SMOOTH",
"797 -15 OFFCURVE",
"776.333 -24 OFFCURVE",
"751 -24 CURVE SMOOTH",
"751 -24 LINE SMOOTH"
);
},
{
closed = 1;
nodes = (
"83 1243 OFFCURVE",
"57.167 1251.333 OFFCURVE",
"35.5 1268 CURVE SMOOTH",
"13.833 1284.667 OFFCURVE",
"3 1309.667 OFFCURVE",
"3 1343 CURVE SMOOTH",
"3 1376.333 OFFCURVE",
"13.833 1401.333 OFFCURVE",
"35.5 1418 CURVE SMOOTH",
"57.167 1434.667 OFFCURVE",
"83 1443 OFFCURVE",
"113 1443 CURVE SMOOTH",
"603 1443 LINE",
"626 1243 LINE",
"113 1243 LINE",
"113 1243 LINE SMOOTH"
);
}
);
width = 940;
}
);
note = "six-ar";
unicode = 0666;
},
{
glyphname = "seven-ar";
layers = (
{
layerId = "65DB373A-59A7-4FB5-ABD2-B802649BC7D7";
paths = (
{
closed = 1;
nodes = (
"511.333 -24 OFFCURVE",
"480.667 -13 OFFCURVE",
"458 9 CURVE SMOOTH",
"435.333 31 OFFCURVE",
"419 62 OFFCURVE",
"409 102 CURVE SMOOTH",
"372.333 250 OFFCURVE",
"333 398.833 OFFCURVE",
"291 548.5 CURVE SMOOTH",
"249 698.167 OFFCURVE",
"208.167 840.5 OFFCURVE",
"168.5 975.5 CURVE SMOOTH",
"128.833 1110.5 OFFCURVE",
"93.333 1229.333 OFFCURVE",
"62 1332 CURVE SMOOTH",
"59.333 1341.333 OFFCURVE",
"56.833 1351 OFFCURVE",
"54.5 1361 CURVE SMOOTH",
"52.167 1371 OFFCURVE",
"51 1379.667 OFFCURVE",
"51 1387 CURVE SMOOTH",
"51 1408.333 OFFCURVE",
"58 1427 OFFCURVE",
"72 1443 CURVE SMOOTH",
"86 1459 OFFCURVE",
"104.667 1467 OFFCURVE",
"128 1467 CURVE SMOOTH",
"144 1467 OFFCURVE",
"159.833 1461.833 OFFCURVE",
"175.5 1451.5 CURVE SMOOTH",
"191.167 1441.167 OFFCURVE",
"202.333 1424.667 OFFCURVE",
"209 1402 CURVE SMOOTH",
"246.333 1282 OFFCURVE",
"284.667 1155.833 OFFCURVE",
"324 1023.5 CURVE SMOOTH",
"363.333 891.167 OFFCURVE",
"402.5 755.833 OFFCURVE",
"441.5 617.5 CURVE SMOOTH",
"480.5 479.167 OFFCURVE",
"517.667 339.667 OFFCURVE",
"553 199 CURVE",
"548 199 LINE",
"583.333 339 OFFCURVE",
"620.333 478.333 OFFCURVE",
"659 617 CURVE SMOOTH",
"697.667 755.667 OFFCURVE",
"736.667 891 OFFCURVE",
"776 1023 CURVE SMOOTH",
"815.333 1155 OFFCURVE",
"853.333 1281 OFFCURVE",
"890 1401 CURVE SMOOTH",
"897.333 1424.333 OFFCURVE",
"908.667 1441.167 OFFCURVE",
"924 1451.5 CURVE SMOOTH",
"939.333 1461.833 OFFCURVE",
"955.333 1467 OFFCURVE",
"972 1467 CURVE SMOOTH",
"995.333 1467 OFFCURVE",
"1014 1459 OFFCURVE",
"1028 1443 CURVE SMOOTH",
"1042 1427 OFFCURVE",
"1049 1408.333 OFFCURVE",
"1049 1387 CURVE SMOOTH",
"1049 1379 OFFCURVE",
"1048 1370.167 OFFCURVE",
"1046 1360.5 CURVE SMOOTH",
"1044 1350.833 OFFCURVE",
"1041.333 1341.333 OFFCURVE",
"1038 1332 CURVE",
"1006.667 1230 OFFCURVE",
"971.333 1112.333 OFFCURVE",
"932 979 CURVE SMOOTH",
"892.667 845.667 OFFCURVE",
"852.5 704.5 OFFCURVE",
"811.5 555.5 CURVE SMOOTH",
"770.5 406.5 OFFCURVE",
"731 256.667 OFFCURVE",
"693 106 CURVE SMOOTH",
"682.333 64 OFFCURVE",
"665.667 31.833 OFFCURVE",
"643 9.5 CURVE SMOOTH",
"620.333 -12.833 OFFCURVE",
"589.333 -24 OFFCURVE",
"550 -24 CURVE SMOOTH",
"550 -24 LINE SMOOTH"
);
}
);
width = 1111;
}
);
note = "seven-ar";
unicode = 0667;
},
{
glyphname = "eight-ar";
layers = (
{
layerId = "65DB373A-59A7-4FB5-ABD2-B802649BC7D7";
paths = (
{
closed = 1;
nodes = (
"604.333 1467 OFFCURVE",
"635.167 1456 OFFCURVE",
"657.5 1434 CURVE SMOOTH",
"679.833 1412 OFFCURVE",
"696 1381 OFFCURVE",
"706 1341 CURVE SMOOTH",
"743.333 1193.667 OFFCURVE",
"782.833 1045 OFFCURVE",
"824.5 895 CURVE SMOOTH",
"866.167 745 OFFCURVE",
"906.833 602.5 OFFCURVE",
"946.5 467.5 CURVE SMOOTH",
"986.167 332.5 OFFCURVE",
"1021.667 213.667 OFFCURVE",
"1053 111 CURVE",
"1056.333 102.333 OFFCURVE",
"1059 92.833 OFFCURVE",
"1061 82.5 CURVE SMOOTH",
"1063 72.167 OFFCURVE",
"1064 63.333 OFFCURVE",
"1064 56 CURVE SMOOTH",
"1064 34.667 OFFCURVE",
"1057 16 OFFCURVE",
"1043 0 CURVE SMOOTH",
"1029 -16 OFFCURVE",
"1010.333 -24 OFFCURVE",
"987 -24 CURVE SMOOTH",
"971 -24 OFFCURVE",
"955.333 -18.833 OFFCURVE",
"940 -8.5 CURVE SMOOTH",
"924.667 1.833 OFFCURVE",
"913.333 18.333 OFFCURVE",
"906 41 CURVE SMOOTH",
"868.667 161.667 OFFCURVE",
"830.333 288 OFFCURVE",
"791 420 CURVE SMOOTH",
"751.667 552 OFFCURVE",
"712.667 687.333 OFFCURVE",
"674 826 CURVE SMOOTH",
"635.333 964.667 OFFCURVE",
"598 1104 OFFCURVE",
"562 1244 CURVE",
"567 1244 LINE",
"531.667 1104 OFFCURVE",
"494.667 964.667 OFFCURVE",
"456 826 CURVE SMOOTH",
"417.333 687.333 OFFCURVE",
"378.333 552 OFFCURVE",
"339 420 CURVE SMOOTH",
"299.667 288 OFFCURVE",
"261.667 162 OFFCURVE",
"225 42 CURVE SMOOTH",
"218.333 18.667 OFFCURVE",
"207.167 1.833 OFFCURVE",
"191.5 -8.5 CURVE SMOOTH",
"175.833 -18.833 OFFCURVE",
"159.667 -24 OFFCURVE",
"143 -24 CURVE SMOOTH",
"119.667 -24 OFFCURVE",
"101 -16 OFFCURVE",
"87 0 CURVE SMOOTH",
"73 16 OFFCURVE",
"66 34.667 OFFCURVE",
"66 56 CURVE SMOOTH",
"66 64 OFFCURVE",
"67.167 72.833 OFFCURVE",
"69.5 82.5 CURVE SMOOTH",
"71.833 92.167 OFFCURVE",
"74.333 101.667 OFFCURVE",
"77 111 CURVE SMOOTH",
"108.333 213.667 OFFCURVE",
"143.667 331.5 OFFCURVE",
"183 464.5 CURVE SMOOTH",
"222.333 597.5 OFFCURVE",
"262.667 738.5 OFFCURVE",
"304 887.5 CURVE SMOOTH",
"345.333 1036.5 OFFCURVE",
"384.667 1186.333 OFFCURVE",
"422 1337 CURVE SMOOTH",
"432.667 1379 OFFCURVE",
"449.5 1411.167 OFFCURVE",
"472.5 1433.5 CURVE SMOOTH",
"495.5 1455.833 OFFCURVE",
"526.333 1467 OFFCURVE",
"565 1467 CURVE",
"565 1467 LINE"
);
}
);
width = 1111;
}
);
note = "eight-ar";
unicode = 0668;
},
{
glyphname = "nine-ar";
layers = (
{
layerId = "65DB373A-59A7-4FB5-ABD2-B802649BC7D7";
paths = (
{
closed = 1;
nodes = (
"764.333 -24 OFFCURVE",
"744 -15.667 OFFCURVE",
"730 1 CURVE SMOOTH",
"716 17.667 OFFCURVE",
"707.333 39 OFFCURVE",
"704 65 CURVE SMOOTH",
"615 903 LINE SMOOTH",
"606.333 987 OFFCURVE",
"592.167 1055.833 OFFCURVE",
"572.5 1109.5 CURVE SMOOTH",
"552.833 1163.167 OFFCURVE",
"528 1202.833 OFFCURVE",
"498 1228.5 CURVE SMOOTH",
"468 1254.167 OFFCURVE",
"432.333 1267 OFFCURVE",
"391 1267 CURVE SMOOTH",
"346.333 1267 OFFCURVE",
"308.667 1254.5 OFFCURVE",
"278 1229.5 CURVE SMOOTH",
"247.333 1204.5 OFFCURVE",
"224.167 1174.333 OFFCURVE",
"208.5 1139 CURVE SMOOTH",
"192.833 1103.667 OFFCURVE",
"185 1070 OFFCURVE",
"185 1038 CURVE SMOOTH",
"185 988.667 OFFCURVE",
"203.167 951 OFFCURVE",
"239.5 925 CURVE SMOOTH",
"275.833 899 OFFCURVE",
"323.333 886 OFFCURVE",
"382 886 CURVE SMOOTH",
"412 886 OFFCURVE",
"442.833 889.333 OFFCURVE",
"474.5 896 CURVE SMOOTH",
"506.167 902.667 OFFCURVE",
"536.167 911.667 OFFCURVE",
"564.5 923 CURVE SMOOTH",
"592.833 934.333 OFFCURVE",
"616.667 947 OFFCURVE",
"636 961 CURVE",
"660 783 LINE",
"627.333 752.333 OFFCURVE",
"586.167 728.5 OFFCURVE",
"536.5 711.5 CURVE SMOOTH",
"486.833 694.5 OFFCURVE",
"433 686 OFFCURVE",
"375 686 CURVE SMOOTH",
"263.667 686 OFFCURVE",
"177.5 716.5 OFFCURVE",
"116.5 777.5 CURVE SMOOTH",
"55.5 838.5 OFFCURVE",
"25 922 OFFCURVE",
"25 1028 CURVE SMOOTH",
"25 1108 OFFCURVE",
"41.167 1181.167 OFFCURVE",
"73.5 1247.5 CURVE SMOOTH",
"105.833 1313.833 OFFCURVE",
"150.667 1367 OFFCURVE",
"208 1407 CURVE SMOOTH",
"265.333 1447 OFFCURVE",
"330.667 1467 OFFCURVE",
"404 1467 CURVE SMOOTH",
"462 1467 OFFCURVE",
"516.333 1451.333 OFFCURVE",
"567 1420 CURVE SMOOTH",
"617.667 1388.667 OFFCURVE",
"661.5 1334.667 OFFCURVE",
"698.5 1258 CURVE SMOOTH",
"735.5 1181.333 OFFCURVE",
"761.333 1075 OFFCURVE",
"776 939 CURVE SMOOTH",
"872 77 LINE SMOOTH",
"875.333 45.667 OFFCURVE",
"869 21 OFFCURVE",
"853 3 CURVE SMOOTH",
"837 -15 OFFCURVE",
"816.333 -24 OFFCURVE",
"791 -24 CURVE SMOOTH",
"791 -24 LINE SMOOTH"
);
}
);
width = 978;
}
);
note = "nine-ar";
unicode = 0669;
},
{
glyphname = "four-persian";
layers = (
{
layerId = "65DB373A-59A7-4FB5-ABD2-B802649BC7D7";
paths = (
{
closed = 1;
nodes = (
"329 -24 OFFCURVE",
"308.833 -15.667 OFFCURVE",
"294.5 1 CURVE SMOOTH",
"280.167 17.667 OFFCURVE",
"271.333 39 OFFCURVE",
"268 65 CURVE SMOOTH",
"117 1356 LINE SMOOTH",
"113 1392.667 OFFCURVE",
"119.167 1420.333 OFFCURVE",
"135.5 1439 CURVE SMOOTH",
"151.833 1457.667 OFFCURVE",
"173 1467 OFFCURVE",
"199 1467 CURVE SMOOTH",
"225.667 1467 OFFCURVE",
"246 1458.667 OFFCURVE",
"260 1442 CURVE SMOOTH",
"274 1425.333 OFFCURVE",
"282.333 1404 OFFCURVE",
"285 1378 CURVE SMOOTH",
"436 77 LINE SMOOTH",
"440 45.667 OFFCURVE",
"433.833 21 OFFCURVE",
"417.5 3 CURVE SMOOTH",
"401.167 -15 OFFCURVE",
"380.333 -24 OFFCURVE",
"355 -24 CURVE SMOOTH",
"355 -24 LINE SMOOTH"
);
},
{
closed = 1;
nodes = (
"754 823 OFFCURVE",
"700.333 825.667 OFFCURVE",
"649 831 CURVE SMOOTH",
"597.667 836.333 OFFCURVE",
"549 846.833 OFFCURVE",
"503 862.5 CURVE SMOOTH",
"457 878.167 OFFCURVE",
"414.167 901.333 OFFCURVE",
"374.5 932 CURVE SMOOTH",
"334.833 962.667 OFFCURVE",
"298.667 1003.333 OFFCURVE",
"266 1054 CURVE",
"235 1378 LINE",
"285 1378 LINE",
"293.667 1322.667 OFFCURVE",
"309.667 1274.667 OFFCURVE",
"333 1234 CURVE SMOOTH",
"356.333 1193.333 OFFCURVE",
"383.167 1159.333 OFFCURVE",
"413.5 1132 CURVE SMOOTH",
"443.833 1104.667 OFFCURVE",
"474.5 1083.333 OFFCURVE",
"505.5 1068 CURVE SMOOTH",
"536.5 1052.667 OFFCURVE",
"564 1042.333 OFFCURVE",
"588 1037 CURVE",
"586 984 LINE",
"548 1004 OFFCURVE",
"520.833 1032 OFFCURVE",
"504.5 1068 CURVE SMOOTH",
"488.167 1104 OFFCURVE",
"480 1140.333 OFFCURVE",
"480 1177 CURVE SMOOTH",
"480 1226.333 OFFCURVE",
"494 1271.833 OFFCURVE",
"522 1313.5 CURVE SMOOTH",
"550 1355.167 OFFCURVE",
"589.667 1388.833 OFFCURVE",
"641 1414.5 CURVE SMOOTH",
"692.333 1440.167 OFFCURVE",
"753.333 1453 OFFCURVE",
"824 1453 CURVE SMOOTH",
"873.333 1453 OFFCURVE",
"916.333 1448 OFFCURVE",
"953 1438 CURVE SMOOTH",
"985 1429.333 OFFCURVE",
"1009.5 1416.5 OFFCURVE",
"1026.5 1399.5 CURVE SMOOTH",
"1043.5 1382.5 OFFCURVE",
"1052 1361 OFFCURVE",
"1052 1335 CURVE SMOOTH",
"1052 1308.333 OFFCURVE",
"1043.167 1286.667 OFFCURVE",
"1025.5 1270 CURVE SMOOTH",
"1007.833 1253.333 OFFCURVE",
"982.667 1247.333 OFFCURVE",
"950 1252 CURVE SMOOTH",
"919.333 1256.667 OFFCURVE",
"895 1259.667 OFFCURVE",
"877 1261 CURVE SMOOTH",
"859 1262.333 OFFCURVE",
"843.333 1263 OFFCURVE",
"830 1263 CURVE SMOOTH",
"773.333 1263 OFFCURVE",
"727.5 1251.833 OFFCURVE",
"692.5 1229.5 CURVE SMOOTH",
"657.5 1207.167 OFFCURVE",
"640 1179.333 OFFCURVE",
"640 1146 CURVE SMOOTH",
"640 1110 OFFCURVE",
"658.833 1080.5 OFFCURVE",
"696.5 1057.5 CURVE SMOOTH",
"734.167 1034.5 OFFCURVE",
"782.667 1023 OFFCURVE",
"842 1023 CURVE SMOOTH",
"863.333 1023 OFFCURVE",
"886 1023.833 OFFCURVE",
"910 1025.5 CURVE SMOOTH",
"934 1027.167 OFFCURVE",
"958.333 1029.333 OFFCURVE",
"983 1032 CURVE SMOOTH",
"1021.667 1036.667 OFFCURVE",
"1052.667 1030.667 OFFCURVE",
"1076 1014 CURVE SMOOTH",
"1099.333 997.333 OFFCURVE",
"1111 972.333 OFFCURVE",
"1111 939 CURVE SMOOTH",
"1111 911 OFFCURVE",
"1102.167 889.333 OFFCURVE",
"1084.5 874 CURVE SMOOTH",
"1066.833 858.667 OFFCURVE",
"1043 847.333 OFFCURVE",
"1013 840 CURVE SMOOTH",
"996.333 836 OFFCURVE",
"967.167 832.167 OFFCURVE",
"925.5 828.5 CURVE SMOOTH",
"883.833 824.833 OFFCURVE",
"845.333 823 OFFCURVE",
"810 823 CURVE SMOOTH",
"810 823 LINE SMOOTH"
);
}
);
width = 1211;
}
);
note = "four-persian";
unicode = 06F4;
},
{
glyphname = "five-persian";
layers = (
{
layerId = "65DB373A-59A7-4FB5-ABD2-B802649BC7D7";
paths = (
{
closed = 1;
nodes = (
"321 0 OFFCURVE",
"269 16.667 OFFCURVE",
"227 50 CURVE SMOOTH",
"185 83.333 OFFCURVE",
"153.333 129.333 OFFCURVE",
"132 188 CURVE SMOOTH",
"110.667 246.667 OFFCURVE",
"100 313.667 OFFCURVE",
"100 389 CURVE SMOOTH",
"100 493 OFFCURVE",
"118.667 596.167 OFFCURVE",
"156 698.5 CURVE SMOOTH",
"193.333 800.833 OFFCURVE",
"244 898.333 OFFCURVE",
"308 991 CURVE SMOOTH",
"372 1083.667 OFFCURVE",
"444.333 1168 OFFCURVE",
"525 1244 CURVE",
"651 1144 LINE",
"569 1071.333 OFFCURVE",
"498.833 994.167 OFFCURVE",
"440.5 912.5 CURVE SMOOTH",
"382.167 830.833 OFFCURVE",
"337.5 749.167 OFFCURVE",
"306.5 667.5 CURVE SMOOTH",
"275.5 585.833 OFFCURVE",
"260 508 OFFCURVE",
"260 434 CURVE SMOOTH",
"260 394 OFFCURVE",
"265.167 356.167 OFFCURVE",
"275.5 320.5 CURVE SMOOTH",
"285.833 284.833 OFFCURVE",
"302 255.833 OFFCURVE",
"324 233.5 CURVE SMOOTH",
"346 211.167 OFFCURVE",
"374.333 200 OFFCURVE",
"409 200 CURVE SMOOTH",
"441 200 OFFCURVE",
"466.5 209.667 OFFCURVE",
"485.5 229 CURVE SMOOTH",
"504.5 248.333 OFFCURVE",
"518.167 273.667 OFFCURVE",
"526.5 305 CURVE SMOOTH",
"534.833 336.333 OFFCURVE",
"539 370.333 OFFCURVE",
"539 407 CURVE SMOOTH",
"539 424 LINE SMOOTH",
"539 449.333 OFFCURVE",
"545.333 469.5 OFFCURVE",
"558 484.5 CURVE SMOOTH",
"570.667 499.5 OFFCURVE",
"589.333 507 OFFCURVE",
"614 507 CURVE SMOOTH",
"638.667 507 OFFCURVE",
"657.333 499.5 OFFCURVE",
"670 484.5 CURVE SMOOTH",
"682.667 469.5 OFFCURVE",
"689 449.333 OFFCURVE",
"689 424 CURVE SMOOTH",
"689 407 LINE SMOOTH",
"689 373.667 OFFCURVE",
"692.333 341.167 OFFCURVE",
"699 309.5 CURVE SMOOTH",
"705.667 277.833 OFFCURVE",
"718.167 251.667 OFFCURVE",
"736.5 231 CURVE SMOOTH",
"754.833 210.333 OFFCURVE",
"781.333 200 OFFCURVE",
"816 200 CURVE SMOOTH",
"850 200 OFFCURVE",
"877.333 210 OFFCURVE",
"898 230 CURVE SMOOTH",
"918.667 250 OFFCURVE",
"933.667 277 OFFCURVE",
"943 311 CURVE SMOOTH",
"952.333 345 OFFCURVE",
"957 382.667 OFFCURVE",
"957 424 CURVE SMOOTH",
"957 528.667 OFFCURVE",
"933.333 632.333 OFFCURVE",
"886 735 CURVE SMOOTH",
"838.667 837.667 OFFCURVE",
"773 936.167 OFFCURVE",
"689 1030.5 CURVE SMOOTH",
"605 1124.833 OFFCURVE",
"507.667 1211.667 OFFCURVE",
"397 1291 CURVE SMOOTH",
"381 1302.333 OFFCURVE",
"368.333 1315.5 OFFCURVE",
"359 1330.5 CURVE SMOOTH",
"349.667 1345.5 OFFCURVE",
"345 1361.667 OFFCURVE",
"345 1379 CURVE SMOOTH",
"345 1400.333 OFFCURVE",
"352.833 1420.333 OFFCURVE",
"368.5 1439 CURVE SMOOTH",
"384.167 1457.667 OFFCURVE",
"405.333 1467 OFFCURVE",
"432 1467 CURVE SMOOTH",
"442 1467 OFFCURVE",
"451.833 1465.5 OFFCURVE",
"461.5 1462.5 CURVE SMOOTH",
"471.167 1459.5 OFFCURVE",
"481 1454.333 OFFCURVE",
"491 1447 CURVE SMOOTH",
"612.333 1362.333 OFFCURVE",
"720 1264.5 OFFCURVE",
"814 1153.5 CURVE SMOOTH",
"908 1042.5 OFFCURVE",
"982 925.667 OFFCURVE",
"1036 803 CURVE SMOOTH",
"1090 680.333 OFFCURVE",
"1117 558.667 OFFCURVE",
"1117 438 CURVE SMOOTH",
"1117 352.667 OFFCURVE",
"1105.333 277 OFFCURVE",
"1082 211 CURVE SMOOTH",
"1058.667 145 OFFCURVE",
"1025.333 93.333 OFFCURVE",
"982 56 CURVE SMOOTH",
"938.667 18.667 OFFCURVE",
"886.667 0 OFFCURVE",
"826 0 CURVE SMOOTH",
"771.333 0 OFFCURVE",
"725 14.833 OFFCURVE",
"687 44.5 CURVE SMOOTH",
"649 74.167 OFFCURVE",
"622.333 111.667 OFFCURVE",
"607 157 CURVE",
"589 109.667 OFFCURVE",
"561.5 71.667 OFFCURVE",
"524.5 43 CURVE SMOOTH",
"487.5 14.333 OFFCURVE",
"440.333 0 OFFCURVE",
"383 0 CURVE SMOOTH",
"383 0 LINE SMOOTH"
);
}
);
width = 1197;
}
);
note = "five-persian";
unicode = 06F5;
},
{
glyphname = "six-persian";
layers = (
{
layerId = "65DB373A-59A7-4FB5-ABD2-B802649BC7D7";
paths = (
{
closed = 1;
nodes = (
"111.667 -24 OFFCURVE",
"93.667 -17.167 OFFCURVE",
"79 -3.5 CURVE SMOOTH",
"64.333 10.167 OFFCURVE",
"57 28.667 OFFCURVE",
"57 52 CURVE SMOOTH",
"57 59.333 OFFCURVE",
"57.833 66.667 OFFCURVE",
"59.5 74 CURVE SMOOTH",
"61.167 81.333 OFFCURVE",
"63.333 89.333 OFFCURVE",
"66 98 CURVE",
"99.333 184 OFFCURVE",
"136.833 266 OFFCURVE",
"178.5 344 CURVE SMOOTH",
"220.167 422 OFFCURVE",
"268.5 495.167 OFFCURVE",
"323.5 563.5 CURVE SMOOTH",
"378.5 631.833 OFFCURVE",
"442.333 693.667 OFFCURVE",
"515 749 CURVE",
"515 722 LINE",
"445.667 719.333 OFFCURVE",
"382.167 732.333 OFFCURVE",
"324.5 761 CURVE SMOOTH",
"266.833 789.667 OFFCURVE",
"220.833 831.667 OFFCURVE",
"186.5 887 CURVE SMOOTH",
"152.167 942.333 OFFCURVE",
"135 1007.333 OFFCURVE",
"135 1082 CURVE SMOOTH",
"135 1156.667 OFFCURVE",
"153.833 1222.833 OFFCURVE",
"191.5 1280.5 CURVE SMOOTH",
"229.167 1338.167 OFFCURVE",
"281 1383.667 OFFCURVE",
"347 1417 CURVE SMOOTH",
"413 1450.333 OFFCURVE",
"488.333 1467 OFFCURVE",
"573 1467 CURVE SMOOTH",
"608.333 1467 OFFCURVE",
"641.667 1464.333 OFFCURVE",
"673 1459 CURVE SMOOTH",
"704.333 1453.667 OFFCURVE",
"726.667 1449.333 OFFCURVE",
"740 1446 CURVE SMOOTH",
"772.667 1437.333 OFFCURVE",
"796.667 1424 OFFCURVE",
"812 1406 CURVE SMOOTH",
"827.333 1388 OFFCURVE",
"835 1367.333 OFFCURVE",
"835 1344 CURVE SMOOTH",
"835 1317.333 OFFCURVE",
"825.167 1293.833 OFFCURVE",
"805.5 1273.5 CURVE SMOOTH",
"785.833 1253.167 OFFCURVE",
"752.667 1247 OFFCURVE",
"706 1255 CURVE SMOOTH",
"688.667 1258.333 OFFCURVE",
"669.333 1261.167 OFFCURVE",
"648 1263.5 CURVE SMOOTH",
"626.667 1265.833 OFFCURVE",
"603.333 1267 OFFCURVE",
"578 1267 CURVE SMOOTH",
"516.667 1267 OFFCURVE",
"464.833 1258.167 OFFCURVE",
"422.5 1240.5 CURVE SMOOTH",
"380.167 1222.833 OFFCURVE",
"348.333 1199 OFFCURVE",
"327 1169 CURVE SMOOTH",
"305.667 1139 OFFCURVE",
"295 1105.333 OFFCURVE",
"295 1068 CURVE SMOOTH",
"295 1012.667 OFFCURVE",
"316.5 967.667 OFFCURVE",
"359.5 933 CURVE SMOOTH",
"402.5 898.333 OFFCURVE",
"460.667 881 OFFCURVE",
"534 881 CURVE SMOOTH",
"567.333 881 OFFCURVE",
"601.333 884.167 OFFCURVE",
"636 890.5 CURVE SMOOTH",
"670.667 896.833 OFFCURVE",
"709.333 908.333 OFFCURVE",
"752 925 CURVE SMOOTH",
"772.667 932.333 OFFCURVE",
"791.5 939.333 OFFCURVE",
"808.5 946 CURVE SMOOTH",
"825.5 952.667 OFFCURVE",
"843 959.333 OFFCURVE",
"861 966 CURVE SMOOTH",
"888.333 976 OFFCURVE",
"912.167 978 OFFCURVE",
"932.5 972 CURVE SMOOTH",
"952.833 966 OFFCURVE",
"968.667 955.333 OFFCURVE",
"980 940 CURVE SMOOTH",
"991.333 924.667 OFFCURVE",
"997 907 OFFCURVE",
"997 887 CURVE SMOOTH",
"997 867 OFFCURVE",
"990.667 848.667 OFFCURVE",
"978 832 CURVE SMOOTH",
"965.333 815.333 OFFCURVE",
"945.667 801.333 OFFCURVE",
"919 790 CURVE SMOOTH",
"891.667 778.667 OFFCURVE",
"862.5 766.167 OFFCURVE",
"831.5 752.5 CURVE SMOOTH",
"800.5 738.833 OFFCURVE",
"770 724 OFFCURVE",
"740 708 CURVE SMOOTH",
"618 642.667 OFFCURVE",
"516.833 557.333 OFFCURVE",
"436.5 452 CURVE SMOOTH",
"356.167 346.667 OFFCURVE",
"282.333 210.333 OFFCURVE",
"215 43 CURVE SMOOTH",
"206.333 22.333 OFFCURVE",
"195.333 6 OFFCURVE",
"182 -6 CURVE SMOOTH",
"168.667 -18 OFFCURVE",
"152.333 -24 OFFCURVE",
"133 -24 CURVE SMOOTH",
"133 -24 LINE SMOOTH"
);
}
);
width = 1033;
}
);
note = "six-persian";
unicode = 06F6;
},
{
glyphname = "four-persian.urdu";
layers = (
{
layerId = "65DB373A-59A7-4FB5-ABD2-B802649BC7D7";
paths = (
{
closed = 1;
nodes = (
"241.333 -24 OFFCURVE",
"221 -15.667 OFFCURVE",
"207 1 CURVE SMOOTH",
"193 17.667 OFFCURVE",
"184.333 39 OFFCURVE",
"181 65 CURVE SMOOTH",
"97 766 LINE SMOOTH",
"86.333 853.333 OFFCURVE",
"79.167 918.5 OFFCURVE",
"75.5 961.5 CURVE SMOOTH",
"71.833 1004.5 OFFCURVE",
"70 1043 OFFCURVE",
"70 1077 CURVE SMOOTH",
"70 1201.667 OFFCURVE",
"99.833 1297.833 OFFCURVE",
"159.5 1365.5 CURVE SMOOTH",
"219.167 1433.167 OFFCURVE",
"298.667 1467 OFFCURVE",
"398 1467 CURVE SMOOTH",
"471.333 1467 OFFCURVE",
"533.667 1448 OFFCURVE",
"585 1410 CURVE SMOOTH",
"636.333 1372 OFFCURVE",
"669.333 1315.667 OFFCURVE",
"684 1241 CURVE",
"662 1241 LINE",
"671.333 1269 OFFCURVE",
"689.167 1298 OFFCURVE",
"715.5 1328 CURVE SMOOTH",
"741.833 1358 OFFCURVE",
"773.833 1384.167 OFFCURVE",
"811.5 1406.5 CURVE SMOOTH",
"849.167 1428.833 OFFCURVE",
"889.333 1441.667 OFFCURVE",
"932 1445 CURVE SMOOTH",
"956 1447 OFFCURVE",
"977 1444.5 OFFCURVE",
"995 1437.5 CURVE SMOOTH",
"1013 1430.5 OFFCURVE",
"1027 1419.667 OFFCURVE",
"1037 1405 CURVE SMOOTH",
"1047 1390.333 OFFCURVE",
"1052 1372.333 OFFCURVE",
"1052 1351 CURVE SMOOTH",
"1052 1317 OFFCURVE",
"1041.833 1291.167 OFFCURVE",
"1021.5 1273.5 CURVE SMOOTH",
"1001.167 1255.833 OFFCURVE",
"975.333 1244.333 OFFCURVE",
"944 1239 CURVE SMOOTH",
"889.333 1229.667 OFFCURVE",
"842 1205.333 OFFCURVE",
"802 1166 CURVE SMOOTH",
"762 1126.667 OFFCURVE",
"742 1075.333 OFFCURVE",
"742 1012 CURVE SMOOTH",
"742 1010 LINE SMOOTH",
"742 984.667 OFFCURVE",
"735.667 964.5 OFFCURVE",
"723 949.5 CURVE SMOOTH",
"710.333 934.5 OFFCURVE",
"691.667 927 OFFCURVE",
"667 927 CURVE SMOOTH",
"642.333 927 OFFCURVE",
"623.667 934.5 OFFCURVE",
"611 949.5 CURVE SMOOTH",
"598.333 964.5 OFFCURVE",
"592 984.667 OFFCURVE",
"592 1010 CURVE SMOOTH",
"592 1012 LINE SMOOTH",
"592 1085.333 OFFCURVE",
"576 1146.167 OFFCURVE",
"544 1194.5 CURVE SMOOTH",
"512 1242.833 OFFCURVE",
"466.667 1267 OFFCURVE",
"408 1267 CURVE SMOOTH",
"356 1267 OFFCURVE",
"315.167 1249 OFFCURVE",
"285.5 1213 CURVE SMOOTH",
"255.833 1177 OFFCURVE",
"241 1126.667 OFFCURVE",
"241 1062 CURVE SMOOTH",
"241 1023.333 OFFCURVE",
"243.167 982.333 OFFCURVE",
"247.5 939 CURVE SMOOTH",
"251.833 895.667 OFFCURVE",
"257.333 846 OFFCURVE",
"264 790 CURVE SMOOTH",
"349 77 LINE SMOOTH",
"353 45.667 OFFCURVE",
"346.833 21 OFFCURVE",
"330.5 3 CURVE SMOOTH",
"314.167 -15 OFFCURVE",
"293.333 -24 OFFCURVE",
"268 -24 CURVE SMOOTH",
"268 -24 LINE SMOOTH"
);
}
);
width = 1097;
}
);
note = "four-persian.urdu";
},
{
glyphname = "seven-persian.urdu";
layers = (
{
layerId = "65DB373A-59A7-4FB5-ABD2-B802649BC7D7";
paths = (
{
closed = 1;
nodes = (
"462.333 0 OFFCURVE",
"370.833 14.333 OFFCURVE",
"298.5 43 CURVE SMOOTH",
"226.167 71.667 OFFCURVE",
"172.5 115.333 OFFCURVE",
"137.5 174 CURVE SMOOTH",
"102.5 232.667 OFFCURVE",
"85 307.333 OFFCURVE",
"85 398 CURVE SMOOTH",
"85 478.667 OFFCURVE",
"97.667 561.5 OFFCURVE",
"123 646.5 CURVE SMOOTH",
"148.333 731.5 OFFCURVE",
"183.667 817.167 OFFCURVE",
"229 903.5 CURVE SMOOTH",
"274.333 989.833 OFFCURVE",
"327 1076 OFFCURVE",
"387 1162 CURVE SMOOTH",
"447 1248 OFFCURVE",
"511.333 1332.333 OFFCURVE",
"580 1415 CURVE SMOOTH",
"593.333 1430.333 OFFCURVE",
"607.5 1442.833 OFFCURVE",
"622.5 1452.5 CURVE SMOOTH",
"637.5 1462.167 OFFCURVE",
"653.333 1467 OFFCURVE",
"670 1467 CURVE SMOOTH",
"690 1467 OFFCURVE",
"709.5 1460.167 OFFCURVE",
"728.5 1446.5 CURVE SMOOTH",
"747.5 1432.833 OFFCURVE",
"757 1412.333 OFFCURVE",
"757 1385 CURVE SMOOTH",
"757 1374.333 OFFCURVE",
"754.5 1362.667 OFFCURVE",
"749.5 1350 CURVE SMOOTH",
"744.5 1337.333 OFFCURVE",
"737.333 1325.333 OFFCURVE",
"728 1314 CURVE SMOOTH",
"648.667 1222.667 OFFCURVE",
"578.833 1135 OFFCURVE",
"518.5 1051 CURVE SMOOTH",
"458.167 967 OFFCURVE",
"407.667 887 OFFCURVE",
"367 811 CURVE SMOOTH",
"326.333 735 OFFCURVE",
"295.833 663.5 OFFCURVE",
"275.5 596.5 CURVE SMOOTH",
"255.167 529.5 OFFCURVE",
"245 467.333 OFFCURVE",
"245 410 CURVE SMOOTH",
"245 356 OFFCURVE",
"258.333 313.667 OFFCURVE",
"285 283 CURVE SMOOTH",
"311.667 252.333 OFFCURVE",
"350.167 230.833 OFFCURVE",
"400.5 218.5 CURVE SMOOTH",
"450.833 206.167 OFFCURVE",
"511 200 OFFCURVE",
"581 200 CURVE SMOOTH",
"635.667 200 OFFCURVE",
"682.333 201.333 OFFCURVE",
"721 204 CURVE SMOOTH",
"759.667 206.667 OFFCURVE",
"803.667 211.333 OFFCURVE",
"853 218 CURVE SMOOTH",
"893 223.333 OFFCURVE",
"924.667 217 OFFCURVE",
"948 199 CURVE SMOOTH",
"971.333 181 OFFCURVE",
"983 156 OFFCURVE",
"983 124 CURVE SMOOTH",
"983 97.333 OFFCURVE",
"973.833 74.667 OFFCURVE",
"955.5 56 CURVE SMOOTH",
"937.167 37.333 OFFCURVE",
"910.333 25.333 OFFCURVE",
"875 20 CURVE SMOOTH",
"839.667 14.667 OFFCURVE",
"796.833 10 OFFCURVE",
"746.5 6 CURVE SMOOTH",
"696.167 2 OFFCURVE",
"638.333 0 OFFCURVE",
"573 0 CURVE SMOOTH",
"573 0 LINE SMOOTH"
);
}
);
width = 975;
}
);
note = "seven-persian.urdu";
},
{
glyphname = period;
layers = (
{
layerId = "65DB373A-59A7-4FB5-ABD2-B802649BC7D7";
paths = (
{
closed = 1;
nodes = (
"228 -10 OFFCURVE",
"201 1 OFFCURVE",
"179 23 CURVE SMOOTH",
"157 45 OFFCURVE",
"146 72 OFFCURVE",
"146 104 CURVE SMOOTH",
"146 136 OFFCURVE",
"157 163 OFFCURVE",
"179 185 CURVE SMOOTH",
"201 207 OFFCURVE",
"228 218 OFFCURVE",
"260 218 CURVE SMOOTH",
"292 218 OFFCURVE",
"319 207 OFFCURVE",
"341 185 CURVE SMOOTH",
"363 163 OFFCURVE",
"374 136 OFFCURVE",
"374 104 CURVE SMOOTH",
"374 72 OFFCURVE",
"363 45 OFFCURVE",
"341 23 CURVE SMOOTH",
"319 1 OFFCURVE",
"292 -10 OFFCURVE",
"260 -10 CURVE SMOOTH",
"260 -10 LINE SMOOTH"
);
}
);
width = 520;
}
);
note = period;
unicode = 002E;
},
{
glyphname = comma;
layers = (
{
layerId = "65DB373A-59A7-4FB5-ABD2-B802649BC7D7";
paths = (
{
closed = 1;
nodes = (
"148 -309 OFFCURVE",
"131.167 -303.5 OFFCURVE",
"117.5 -292.5 CURVE SMOOTH",
"103.833 -281.5 OFFCURVE",
"97 -266 OFFCURVE",
"97 -246 CURVE SMOOTH",
"97 -238.667 OFFCURVE",
"97.333 -232.333 OFFCURVE",
"98 -227 CURVE SMOOTH",
"98.667 -221.667 OFFCURVE",
"99.333 -217.667 OFFCURVE",
"100 -215 CURVE",
"171 156 LINE SMOOTH",
"176.333 183.333 OFFCURVE",
"186.167 202.833 OFFCURVE",
"200.5 214.5 CURVE SMOOTH",
"214.833 226.167 OFFCURVE",
"233.667 232 OFFCURVE",
"257 232 CURVE SMOOTH",
"282.333 232 OFFCURVE",
"303.167 225 OFFCURVE",
"319.5 211 CURVE SMOOTH",
"335.833 197 OFFCURVE",
"344 177.667 OFFCURVE",
"344 153 CURVE SMOOTH",
"344 135.667 OFFCURVE",
"341.333 117.333 OFFCURVE",
"336 98 CURVE SMOOTH",
"244 -246 LINE SMOOTH",
"238.667 -267.333 OFFCURVE",
"230 -283.167 OFFCURVE",
"218 -293.5 CURVE SMOOTH",
"206 -303.833 OFFCURVE",
"189.333 -309 OFFCURVE",
"168 -309 CURVE SMOOTH",
"168 -309 LINE SMOOTH"
);
}
);
width = 520;
}
);
note = comma;
unicode = 002C;
},
{
glyphname = colon;
layers = (
{
layerId = "65DB373A-59A7-4FB5-ABD2-B802649BC7D7";
paths = (
{
closed = 1;
nodes = (
"182 726 OFFCURVE",
"155 737 OFFCURVE",
"133 759 CURVE SMOOTH",
"111 781 OFFCURVE",
"100 808 OFFCURVE",
"100 840 CURVE SMOOTH",
"100 872 OFFCURVE",
"111 899 OFFCURVE",
"133 921 CURVE SMOOTH",
"155 943 OFFCURVE",
"182 954 OFFCURVE",
"214 954 CURVE SMOOTH",
"246 954 OFFCURVE",
"273 943 OFFCURVE",
"295 921 CURVE SMOOTH",
"317 899 OFFCURVE",
"328 872 OFFCURVE",
"328 840 CURVE SMOOTH",
"328 808 OFFCURVE",
"317 781 OFFCURVE",
"295 759 CURVE SMOOTH",
"273 737 OFFCURVE",
"246 726 OFFCURVE",
"214 726 CURVE SMOOTH",
"214 726 LINE SMOOTH"
);
},
{
closed = 1;
nodes = (
"182 -10 OFFCURVE",
"155 1 OFFCURVE",
"133 23 CURVE SMOOTH",
"111 45 OFFCURVE",
"100 72 OFFCURVE",
"100 104 CURVE SMOOTH",
"100 136 OFFCURVE",
"111 163 OFFCURVE",
"133 185 CURVE SMOOTH",
"155 207 OFFCURVE",
"182 218 OFFCURVE",
"214 218 CURVE SMOOTH",
"246 218 OFFCURVE",
"273 207 OFFCURVE",
"295 185 CURVE SMOOTH",
"317 163 OFFCURVE",
"328 136 OFFCURVE",
"328 104 CURVE SMOOTH",
"328 72 OFFCURVE",
"317 45 OFFCURVE",
"295 23 CURVE SMOOTH",
"273 1 OFFCURVE",
"246 -10 OFFCURVE",
"214 -10 CURVE SMOOTH",
"214 -10 LINE SMOOTH"
);
}
);
width = 428;
}
);
note = colon;
unicode = 003A;
},
{
glyphname = slash;
layers = (
{
layerId = "65DB373A-59A7-4FB5-ABD2-B802649BC7D7";
paths = (
{
closed = 1;
nodes = (
"62.333 -194 OFFCURVE",
"45.333 -188.167 OFFCURVE",
"32 -176.5 CURVE SMOOTH",
"18.667 -164.833 OFFCURVE",
"12 -149 OFFCURVE",
"12 -129 CURVE SMOOTH",
"12 -123 OFFCURVE",
"12.667 -117 OFFCURVE",
"14 -111 CURVE SMOOTH",
"15.333 -105 OFFCURVE",
"16.333 -100.333 OFFCURVE",
"17 -97 CURVE",
"498 1551 LINE SMOOTH",
"510 1593 OFFCURVE",
"535 1614 OFFCURVE",
"573 1614 CURVE SMOOTH",
"593.667 1614 OFFCURVE",
"610.333 1607.833 OFFCURVE",
"623 1595.5 CURVE SMOOTH",
"635.667 1583.167 OFFCURVE",
"642 1567.333 OFFCURVE",
"642 1548 CURVE SMOOTH",
"642 1544 OFFCURVE",
"641.833 1540.167 OFFCURVE",
"641.5 1536.5 CURVE SMOOTH",
"641.167 1532.833 OFFCURVE",
"640.333 1528 OFFCURVE",
"639 1522 CURVE",
"154 -136 LINE SMOOTH",
"148.667 -154.667 OFFCURVE",
"140 -169 OFFCURVE",
"128 -179 CURVE SMOOTH",
"116 -189 OFFCURVE",
"101 -194 OFFCURVE",
"83 -194 CURVE SMOOTH",
"83 -194 LINE SMOOTH"
);
}
);
width = 660;
}
);
note = slash;
unicode = 002F;
},
{
glyphname = hyphen;
layers = (
{
layerId = "65DB373A-59A7-4FB5-ABD2-B802649BC7D7";
paths = (
{
closed = 1;
nodes = (
"157.333 656 OFFCURVE",
"136.833 663.333 OFFCURVE",
"120.5 678 CURVE SMOOTH",
"104.167 692.667 OFFCURVE",
"96 712.333 OFFCURVE",
"96 737 CURVE SMOOTH",
"96 761.667 OFFCURVE",
"104.167 781.333 OFFCURVE",
"120.5 796 CURVE SMOOTH",
"136.833 810.667 OFFCURVE",
"157.333 818 OFFCURVE",
"182 818 CURVE SMOOTH",
"696 818 LINE SMOOTH",
"720.667 818 OFFCURVE",
"741.167 810.667 OFFCURVE",
"757.5 796 CURVE SMOOTH",
"773.833 781.333 OFFCURVE",
"782 761.667 OFFCURVE",
"782 737 CURVE SMOOTH",
"782 712.333 OFFCURVE",
"773.833 692.667 OFFCURVE",
"757.5 678 CURVE SMOOTH",
"741.167 663.333 OFFCURVE",
"720.667 656 OFFCURVE",
"696 656 CURVE SMOOTH",
"182 656 LINE",
"182 656 LINE SMOOTH"
);
}
);
width = 878;
}
);
note = hyphen;
unicode = 002D;
},
{
glyphname = quotesingle;
layers = (
{
layerId = "65DB373A-59A7-4FB5-ABD2-B802649BC7D7";
paths = (
{
closed = 1;
nodes = (
"220.333 916 OFFCURVE",
"201.333 923.667 OFFCURVE",
"186 939 CURVE SMOOTH",
"170.667 954.333 OFFCURVE",
"163 974.333 OFFCURVE",
"163 999 CURVE SMOOTH",
"163 1378 LINE SMOOTH",
"163 1402.667 OFFCURVE",
"170.667 1422.667 OFFCURVE",
"186 1438 CURVE SMOOTH",
"201.333 1453.333 OFFCURVE",
"220.333 1461 OFFCURVE",
"243 1461 CURVE SMOOTH",
"266.333 1461 OFFCURVE",
"285.5 1453.333 OFFCURVE",
"300.5 1438 CURVE SMOOTH",
"315.5 1422.667 OFFCURVE",
"323 1402.667 OFFCURVE",
"323 1378 CURVE SMOOTH",
"323 999 LINE SMOOTH",
"323 974.333 OFFCURVE",
"315.5 954.333 OFFCURVE",
"300.5 939 CURVE SMOOTH",
"285.5 923.667 OFFCURVE",
"266.333 916 OFFCURVE",
"243 916 CURVE SMOOTH",
"243 916 LINE SMOOTH"
);
}
);
width = 486;
}
);
note = quotesingle;
unicode = 0027;
},
{
glyphname = .notdef;
layers = (
{
layerId = "65DB373A-59A7-4FB5-ABD2-B802649BC7D7";
paths = (
{
closed = 1;
nodes = (
"100 -494 LINE",
"100 -210 LINE",
"1948 -210 LINE",
"1948 -494 LINE",
"100 -494 LINE"
);
},
{
closed = 1;
nodes = (
"100 -62 LINE",
"100 222 LINE",
"1948 222 LINE",
"1948 -62 LINE",
"100 -62 LINE"
);
},
{
closed = 1;
nodes = (
"100 370 LINE",
"100 654 LINE",
"1948 654 LINE",
"1948 370 LINE",
"100 370 LINE"
);
},
{
closed = 1;
nodes = (
"100 802 LINE",
"100 1086 LINE",
"1948 1086 LINE",
"1948 802 LINE",
"100 802 LINE"
);
},
{
closed = 1;
nodes = (
"100 1234 LINE",
"100 1518 LINE",
"1948 1518 LINE",
"1948 1234 LINE",
"100 1234 LINE"
);
},
{
closed = 1;
nodes = (
"100 1666 LINE",
"100 1950 LINE",
"1948 1950 LINE",
"1948 1666 LINE",
"100 1666 LINE"
);
}
);
width = 2048;
}
);
note = .notdef;
},
{
glyphname = degree;
layers = (
{
layerId = "65DB373A-59A7-4FB5-ABD2-B802649BC7D7";
paths = (
{
closed = 1;
nodes = (
"352.667 812 OFFCURVE",
"301.333 825.167 OFFCURVE",
"256 851.5 CURVE SMOOTH",
"210.667 877.833 OFFCURVE",
"175 913.667 OFFCURVE",
"149 959 CURVE SMOOTH",
"123 1004.333 OFFCURVE",
"110 1055.333 OFFCURVE",
"110 1112 CURVE SMOOTH",
"110 1113 LINE SMOOTH",
"110.667 1169.667 OFFCURVE",
"124 1220.5 OFFCURVE",
"150 1265.5 CURVE SMOOTH",
"176 1310.5 OFFCURVE",
"211.667 1346.167 OFFCURVE",
"257 1372.5 CURVE SMOOTH",
"302.333 1398.833 OFFCURVE",
"353.333 1412 OFFCURVE",
"410 1412 CURVE SMOOTH",
"466.667 1412 OFFCURVE",
"517.5 1398.833 OFFCURVE",
"562.5 1372.5 CURVE SMOOTH",
"607.5 1346.167 OFFCURVE",
"643.333 1310.5 OFFCURVE",
"670 1265.5 CURVE SMOOTH",
"696.667 1220.5 OFFCURVE",
"710 1169.667 OFFCURVE",
"710 1113 CURVE SMOOTH",
"710 1112 LINE SMOOTH",
"710 1055.333 OFFCURVE",
"696.833 1004.333 OFFCURVE",
"670.5 959 CURVE SMOOTH",
"644.167 913.667 OFFCURVE",
"608.333 877.833 OFFCURVE",
"563 851.5 CURVE SMOOTH",
"517.667 825.167 OFFCURVE",
"466.667 812 OFFCURVE",
"410 812 CURVE SMOOTH",
"410 812 LINE SMOOTH"
);
},
{
closed = 1;
nodes = (
"453.333 957 OFFCURVE",
"489.167 971.5 OFFCURVE",
"517.5 1000.5 CURVE SMOOTH",
"545.833 1029.5 OFFCURVE",
"560 1066.333 OFFCURVE",
"560 1111 CURVE SMOOTH",
"560 1112 LINE SMOOTH",
"560 1158 OFFCURVE",
"545.833 1195.333 OFFCURVE",
"517.5 1224 CURVE SMOOTH",
"489.167 1252.667 OFFCURVE",
"453.333 1267 OFFCURVE",
"410 1267 CURVE SMOOTH",
"369.333 1267 OFFCURVE",
"334.167 1252.667 OFFCURVE",
"304.5 1224 CURVE SMOOTH",
"274.833 1195.333 OFFCURVE",
"260 1158 OFFCURVE",
"260 1112 CURVE SMOOTH",
"260 1111 LINE SMOOTH",
"260 1066.333 OFFCURVE",
"274.667 1029.5 OFFCURVE",
"304 1000.5 CURVE SMOOTH",
"333.333 971.5 OFFCURVE",
"368.667 957 OFFCURVE",
"410 957 CURVE",
"410 957 LINE"
);
}
);
width = 820;
}
);
note = degree;
unicode = 00B0;
},
{
glyphname = plus;
layers = (
{
layerId = "65DB373A-59A7-4FB5-ABD2-B802649BC7D7";
paths = (
{
closed = 1;
nodes = (
"594.333 175 OFFCURVE",
"574.667 183.167 OFFCURVE",
"560 199.5 CURVE SMOOTH",
"545.333 215.833 OFFCURVE",
"538 236.333 OFFCURVE",
"538 261 CURVE SMOOTH",
"538 612 LINE",
"206 612 LINE SMOOTH",
"181.333 612 OFFCURVE",
"160.833 619.333 OFFCURVE",
"144.5 634 CURVE SMOOTH",
"128.167 648.667 OFFCURVE",
"120 668.333 OFFCURVE",
"120 693 CURVE SMOOTH",
"120 717.667 OFFCURVE",
"128.167 737.333 OFFCURVE",
"144.5 752 CURVE SMOOTH",
"160.833 766.667 OFFCURVE",
"181.333 774 OFFCURVE",
"206 774 CURVE SMOOTH",
"538 774 LINE",
"538 1126 LINE SMOOTH",
"538 1150.667 OFFCURVE",
"545.333 1171.167 OFFCURVE",
"560 1187.5 CURVE SMOOTH",
"574.667 1203.833 OFFCURVE",
"594.333 1212 OFFCURVE",
"619 1212 CURVE SMOOTH",
"643.667 1212 OFFCURVE",
"663.333 1203.833 OFFCURVE",
"678 1187.5 CURVE SMOOTH",
"692.667 1171.167 OFFCURVE",
"700 1150.667 OFFCURVE",
"700 1126 CURVE SMOOTH",
"700 774 LINE",
"1031 774 LINE SMOOTH",
"1055.667 774 OFFCURVE",
"1076.167 766.667 OFFCURVE",
"1092.5 752 CURVE SMOOTH",
"1108.833 737.333 OFFCURVE",
"1117 717.667 OFFCURVE",
"1117 693 CURVE SMOOTH",
"1117 668.333 OFFCURVE",
"1108.833 648.667 OFFCURVE",
"1092.5 634 CURVE SMOOTH",
"1076.167 619.333 OFFCURVE",
"1055.667 612 OFFCURVE",
"1031 612 CURVE SMOOTH",
"700 612 LINE",
"700 261 LINE SMOOTH",
"700 236.333 OFFCURVE",
"692.667 215.833 OFFCURVE",
"678 199.5 CURVE SMOOTH",
"663.333 183.167 OFFCURVE",
"643.667 175 OFFCURVE",
"619 175 CURVE SMOOTH",
"619 175 LINE SMOOTH"
);
}
);
width = 1238;
}
);
note = plus;
unicode = 002B;
},
{
glyphname = minus;
layers = (
{
layerId = "65DB373A-59A7-4FB5-ABD2-B802649BC7D7";
paths = (
{
closed = 1;
nodes = (
"207.333 613 OFFCURVE",
"186.833 620.333 OFFCURVE",
"170.5 635 CURVE SMOOTH",
"154.167 649.667 OFFCURVE",
"146 669.333 OFFCURVE",
"146 694 CURVE SMOOTH",
"146 718.667 OFFCURVE",
"154.167 738.333 OFFCURVE",
"170.5 753 CURVE SMOOTH",
"186.833 767.667 OFFCURVE",
"207.333 775 OFFCURVE",
"232 775 CURVE SMOOTH",
"1006 775 LINE SMOOTH",
"1030.667 775 OFFCURVE",
"1051.167 767.667 OFFCURVE",
"1067.5 753 CURVE SMOOTH",
"1083.833 738.333 OFFCURVE",
"1092 718.667 OFFCURVE",
"1092 694 CURVE SMOOTH",
"1092 669.333 OFFCURVE",
"1083.833 649.667 OFFCURVE",
"1067.5 635 CURVE SMOOTH",
"1051.167 620.333 OFFCURVE",
"1030.667 613 OFFCURVE",
"1006 613 CURVE SMOOTH",
"232 613 LINE",
"232 613 LINE SMOOTH"
);
}
);
width = 1238;
}
);
note = minus;
unicode = 2212;
},
{
glyphname = percent;
layers = (
{
layerId = "65DB373A-59A7-4FB5-ABD2-B802649BC7D7";
paths = (
{
closed = 1;
nodes = (
"375.333 -18 OFFCURVE",
"358.667 -12 OFFCURVE",
"346 0 CURVE SMOOTH",
"333.333 12 OFFCURVE",
"327 27.333 OFFCURVE",
"327 46 CURVE SMOOTH",
"327 55.333 OFFCURVE",
"328.5 63.833 OFFCURVE",
"331.5 71.5 CURVE SMOOTH",
"334.5 79.167 OFFCURVE",
"338.333 86.333 OFFCURVE",
"343 93 CURVE",
"1188 1412 LINE SMOOTH",
"1206 1440.667 OFFCURVE",
"1228.667 1455 OFFCURVE",
"1256 1455 CURVE SMOOTH",
"1276 1455 OFFCURVE",
"1292.5 1449 OFFCURVE",
"1305.5 1437 CURVE SMOOTH",
"1318.5 1425 OFFCURVE",
"1325 1409.667 OFFCURVE",
"1325 1391 CURVE SMOOTH",
"1325 1382.333 OFFCURVE",
"1323.5 1374.167 OFFCURVE",
"1320.5 1366.5 CURVE SMOOTH",
"1317.5 1358.833 OFFCURVE",
"1313.667 1351.333 OFFCURVE",
"1309 1344 CURVE SMOOTH",
"464 25 LINE SMOOTH",
"445.333 -3.667 OFFCURVE",
"422.667 -18 OFFCURVE",
"396 -18 CURVE SMOOTH",
"396 -18 LINE SMOOTH"
);
},
{
closed = 1;
nodes = (
"292.333 731 OFFCURVE",
"221 763.5 OFFCURVE",
"169 828.5 CURVE SMOOTH",
"117 893.5 OFFCURVE",
"91 981.667 OFFCURVE",
"91 1093 CURVE SMOOTH",
"91 1094 LINE SMOOTH",
"91 1205.333 OFFCURVE",
"117 1293.333 OFFCURVE",
"169 1358 CURVE SMOOTH",
"221 1422.667 OFFCURVE",
"292.333 1455 OFFCURVE",
"383 1455 CURVE SMOOTH",
"474.333 1455 OFFCURVE",
"545.833 1422.667 OFFCURVE",
"597.5 1358 CURVE SMOOTH",
"649.167 1293.333 OFFCURVE",
"675 1205.333 OFFCURVE",
"675 1094 CURVE SMOOTH",
"675 1093 LINE SMOOTH",
"675 981.667 OFFCURVE",
"649.167 893.5 OFFCURVE",
"597.5 828.5 CURVE SMOOTH",
"545.833 763.5 OFFCURVE",
"474.333 731 OFFCURVE",
"383 731 CURVE SMOOTH",
"383 731 LINE SMOOTH"
);
},
{
closed = 1;
nodes = (
"431.667 851 OFFCURVE",
"469.333 872.333 OFFCURVE",
"496 915 CURVE SMOOTH",
"522.667 957.667 OFFCURVE",
"536 1017 OFFCURVE",
"536 1093 CURVE SMOOTH",
"536 1094 LINE SMOOTH",
"536 1170 OFFCURVE",
"522.667 1229.167 OFFCURVE",
"496 1271.5 CURVE SMOOTH",
"469.333 1313.833 OFFCURVE",
"431.667 1335 OFFCURVE",
"383 1335 CURVE SMOOTH",
"334.333 1335 OFFCURVE",
"296.667 1313.833 OFFCURVE",
"270 1271.5 CURVE SMOOTH",
"243.333 1229.167 OFFCURVE",
"230 1170 OFFCURVE",
"230 1094 CURVE SMOOTH",
"230 1093 LINE SMOOTH",
"230 1017 OFFCURVE",
"243.333 957.667 OFFCURVE",
"270 915 CURVE SMOOTH",
"296.667 872.333 OFFCURVE",
"334.333 851 OFFCURVE",
"383 851 CURVE",
"383 851 LINE"
);
},
{
closed = 1;
nodes = (
"1181.333 -12 OFFCURVE",
"1110 20.5 OFFCURVE",
"1058 85.5 CURVE SMOOTH",
"1006 150.5 OFFCURVE",
"980 238.667 OFFCURVE",
"980 350 CURVE SMOOTH",
"980 351 LINE SMOOTH",
"980 462.333 OFFCURVE",
"1006 550.333 OFFCURVE",
"1058 615 CURVE SMOOTH",
"1110 679.667 OFFCURVE",
"1181.333 712 OFFCURVE",
"1272 712 CURVE SMOOTH",
"1363.333 712 OFFCURVE",
"1434.833 679.667 OFFCURVE",
"1486.5 615 CURVE SMOOTH",
"1538.167 550.333 OFFCURVE",
"1564 462.333 OFFCURVE",
"1564 351 CURVE SMOOTH",
"1564 350 LINE SMOOTH",
"1564 238.667 OFFCURVE",
"1538.167 150.5 OFFCURVE",
"1486.5 85.5 CURVE SMOOTH",
"1434.833 20.5 OFFCURVE",
"1363.333 -12 OFFCURVE",
"1272 -12 CURVE SMOOTH",
"1272 -12 LINE SMOOTH"
);
},
{
closed = 1;
nodes = (
"1320.667 108 OFFCURVE",
"1358.333 129.333 OFFCURVE",
"1385 172 CURVE SMOOTH",
"1411.667 214.667 OFFCURVE",
"1425 274 OFFCURVE",
"1425 350 CURVE SMOOTH",
"1425 351 LINE SMOOTH",
"1425 427 OFFCURVE",
"1411.667 486.167 OFFCURVE",
"1385 528.5 CURVE SMOOTH",
"1358.333 570.833 OFFCURVE",
"1320.667 592 OFFCURVE",
"1272 592 CURVE SMOOTH",
"1223.333 592 OFFCURVE",
"1185.667 570.833 OFFCURVE",
"1159 528.5 CURVE SMOOTH",
"1132.333 486.167 OFFCURVE",
"1119 427 OFFCURVE",
"1119 351 CURVE SMOOTH",
"1119 350 LINE SMOOTH",
"1119 274 OFFCURVE",
"1132.333 214.667 OFFCURVE",
"1159 172 CURVE SMOOTH",
"1185.667 129.333 OFFCURVE",
"1223.333 108 OFFCURVE",
"1272 108 CURVE",
"1272 108 LINE"
);
}
);
width = 1655;
}
);
note = percent;
unicode = 0025;
},
{
glyphname = "percent-ar";
layers = (
{
layerId = "65DB373A-59A7-4FB5-ABD2-B802649BC7D7";
paths = (
{
closed = 1;
nodes = (
"184.333 -12 OFFCURVE",
"167.667 -6 OFFCURVE",
"155 6 CURVE SMOOTH",
"142.333 18 OFFCURVE",
"136 33.333 OFFCURVE",
"136 52 CURVE SMOOTH",
"136 61.333 OFFCURVE",
"137.5 69.833 OFFCURVE",
"140.5 77.5 CURVE SMOOTH",
"143.5 85.167 OFFCURVE",
"147.333 92.333 OFFCURVE",
"152 99 CURVE",
"993 1412 LINE SMOOTH",
"1011 1440.667 OFFCURVE",
"1033.667 1455 OFFCURVE",
"1061 1455 CURVE SMOOTH",
"1081 1455 OFFCURVE",
"1097.5 1449 OFFCURVE",
"1110.5 1437 CURVE SMOOTH",
"1123.5 1425 OFFCURVE",
"1130 1409.667 OFFCURVE",
"1130 1391 CURVE SMOOTH",
"1130 1382.333 OFFCURVE",
"1128.5 1374.167 OFFCURVE",
"1125.5 1366.5 CURVE SMOOTH",
"1122.5 1358.833 OFFCURVE",
"1118.667 1351.333 OFFCURVE",
"1114 1344 CURVE SMOOTH",
"273 31 LINE SMOOTH",
"254.333 2.333 OFFCURVE",
"231.667 -12 OFFCURVE",
"205 -12 CURVE SMOOTH",
"205 -12 LINE SMOOTH"
);
},
{
closed = 1;
nodes = (
"975 -22 OFFCURVE",
"948 -11 OFFCURVE",
"926 11 CURVE SMOOTH",
"904 33 OFFCURVE",
"893 60 OFFCURVE",
"893 92 CURVE SMOOTH",
"893 124 OFFCURVE",
"904 151 OFFCURVE",
"926 173 CURVE SMOOTH",
"948 195 OFFCURVE",
"975 206 OFFCURVE",
"1007 206 CURVE SMOOTH",
"1039 206 OFFCURVE",
"1066 195 OFFCURVE",
"1088 173 CURVE SMOOTH",
"1110 151 OFFCURVE",
"1121 124 OFFCURVE",
"1121 92 CURVE SMOOTH",
"1121 60 OFFCURVE",
"1110 33 OFFCURVE",
"1088 11 CURVE SMOOTH",
"1066 -11 OFFCURVE",
"1039 -22 OFFCURVE",
"1007 -22 CURVE SMOOTH",
"1007 -22 LINE SMOOTH"
);
},
{
closed = 1;
nodes = (
"226 1237 OFFCURVE",
"199 1248 OFFCURVE",
"177 1270 CURVE SMOOTH",
"155 1292 OFFCURVE",
"144 1319 OFFCURVE",
"144 1351 CURVE SMOOTH",
"144 1383 OFFCURVE",
"155 1410 OFFCURVE",
"177 1432 CURVE SMOOTH",
"199 1454 OFFCURVE",
"226 1465 OFFCURVE",
"258 1465 CURVE SMOOTH",
"290 1465 OFFCURVE",
"317 1454 OFFCURVE",
"339 1432 CURVE SMOOTH",
"361 1410 OFFCURVE",
"372 1383 OFFCURVE",
"372 1351 CURVE SMOOTH",
"372 1319 OFFCURVE",
"361 1292 OFFCURVE",
"339 1270 CURVE SMOOTH",
"317 1248 OFFCURVE",
"290 1237 OFFCURVE",
"258 1237 CURVE SMOOTH",
"258 1237 LINE SMOOTH"
);
}
